<?xml version="1.0" encoding="UTF-8" standalone="no"?>
<!-- Created with Inkscape (http://www.inkscape.org/) -->
<svg
   xmlns:dc="http://purl.org/dc/elements/1.1/"
   xmlns:cc="http://web.resource.org/cc/"
   xmlns:rdf="http://www.w3.org/1999/02/22-rdf-syntax-ns#"
   xmlns:svg="http://www.w3.org/2000/svg"
   xmlns="http://www.w3.org/2000/svg"
   xmlns:sodipodi="http://inkscape.sourceforge.net/DTD/sodipodi-0.dtd"
   xmlns:inkscape="http://www.inkscape.org/namespaces/inkscape"
   width="21cm"
   height="18.200001cm"
   id="svg1324"
   sodipodi:version="0.32"
   inkscape:version="0.43"
   sodipodi:docbase="G:\Mes documents\francois\doc_jeux"
   sodipodi:docname="Puissance4_01.svg"
   version="1.0">
  <defs
     id="defs1326" />
  <sodipodi:namedview
     id="base"
     pagecolor="#ffffff"
     bordercolor="#666666"
     borderopacity="1.0"
     inkscape:pageopacity="0.0"
     inkscape:pageshadow="2"
     inkscape:zoom="0.75024142"
     inkscape:cx="643.84941"
     inkscape:cy="405.41803"
     inkscape:document-units="mm"
     inkscape:current-layer="layer1"
     inkscape:window-width="1280"
     inkscape:window-height="970"
     inkscape:window-x="1276"
     inkscape:window-y="-4" />
  <metadata
     id="metadata1329">
    <rdf:RDF>
      <cc:Work
         rdf:about="">
        <dc:format>image/svg+xml</dc:format>
        <dc:type
           rdf:resource="http://purl.org/dc/dcmitype/StillImage" />
        <cc:license
           rdf:resource="http://creativecommons.org/licenses/GPL/2.0/" />
        <dc:title>Puissance4_01</dc:title>
        <dc:creator>
          <cc:Agent>
            <dc:title>François Haffner</dc:title>
          </cc:Agent>
        </dc:creator>
      </cc:Work>
      <cc:License
         rdf:about="http://creativecommons.org/licenses/GPL/2.0/">
        <cc:permits
           rdf:resource="http://web.resource.org/cc/Reproduction" />
        <cc:permits
           rdf:resource="http://web.resource.org/cc/Distribution" />
        <cc:requires
           rdf:resource="http://web.resource.org/cc/Notice" />
        <cc:permits
           rdf:resource="http://web.resource.org/cc/DerivativeWorks" />
        <cc:requires
           rdf:resource="http://web.resource.org/cc/ShareAlike" />
        <cc:requires
           rdf:resource="http://web.resource.org/cc/SourceCode" />
      </cc:License>
    </rdf:RDF>
  </metadata>
  <g
     inkscape:label="Layer 1"
     inkscape:groupmode="layer"
     id="layer1">
    <g
       id="g2932"
       transform="matrix(1.067148,0,0,1.058798,-9.922884,-459.8516)">
      <g
         id="g2922"
         transform="translate(-96.62518,464.1788)">
        <path
           transform="matrix(0.866025,-0.5,0.5,0.866025,247.0361,185.3576)"
           d="M 157.14286 218.07646 A 42.857143 42.857143 0 1 1  71.42857,218.07646 A 42.857143 42.857143 0 1 1  157.14286 218.07646 z"
           sodipodi:ry="42.857143"
           sodipodi:rx="42.857143"
           sodipodi:cy="218.07646"
           sodipodi:cx="114.28571"
           id="path2924"
           style="fill:#ffae00;fill-opacity:1;fill-rule:evenodd;stroke:none;stroke-opacity:1"
           sodipodi:type="arc" />
        <g
           id="g2926"
           transform="matrix(0.866025,-0.5,0.5,0.866025,246.7984,188.937)">
          <path
             id="path2928"
             d="M 79.03125,214.1875 C 79.001888,214.79415 78.96875,215.38612 78.96875,216 C 78.96875,236.59474 95.68651,253.3125 116.28125,253.3125 C 136.87599,253.3125 153.59376,236.59474 153.59375,216 C 153.59375,215.38612 153.56061,214.79415 153.53125,214.1875 C 152.53138,233.89158 136.2324,249.59375 116.28125,249.59375 C 96.330096,249.59375 80.031123,233.89158 79.03125,214.1875 z "
             style="fill:#ffffff;fill-opacity:0.71179038;fill-rule:evenodd;stroke:none;stroke-opacity:1" />
          <path
             style="fill:#000000;fill-opacity:0.34497818;fill-rule:evenodd;stroke:none;stroke-opacity:1"
             d="M 79.03125,216.00319 C 79.001888,215.39654 78.96875,214.80457 78.96875,214.19069 C 78.96875,193.59595 95.68651,176.87819 116.28125,176.87819 C 136.87599,176.87819 153.59376,193.59595 153.59375,214.19069 C 153.59375,214.80457 153.56061,215.39654 153.53125,216.00319 C 152.53138,196.29911 136.2324,180.59694 116.28125,180.59694 C 96.330096,180.59694 80.031123,196.29911 79.03125,216.00319 z "
             id="path2930" />
        </g>
      </g>
      <g
         transform="translate(86.6383,692.6067)"
         id="g2332">
        <path
           sodipodi:type="arc"
           style="fill:#ff0000;fill-opacity:1;fill-rule:evenodd;stroke:none;stroke-opacity:1"
           id="path1447"
           sodipodi:cx="114.28571"
           sodipodi:cy="218.07646"
           sodipodi:rx="42.857143"
           sodipodi:ry="42.857143"
           d="M 157.14286 218.07646 A 42.857143 42.857143 0 1 1  71.42857,218.07646 A 42.857143 42.857143 0 1 1  157.14286 218.07646 z"
           transform="matrix(0.866025,-0.5,0.5,0.866025,-32.87382,-42.56904)" />
        <g
           transform="matrix(0.866025,-0.5,0.5,0.866025,-33.11146,-38.98956)"
           id="g2326">
          <path
             style="fill:#ffffff;fill-opacity:0.71179038;fill-rule:evenodd;stroke:none;stroke-opacity:1"
             d="M 79.03125,214.1875 C 79.001888,214.79415 78.96875,215.38612 78.96875,216 C 78.96875,236.59474 95.68651,253.3125 116.28125,253.3125 C 136.87599,253.3125 153.59376,236.59474 153.59375,216 C 153.59375,215.38612 153.56061,214.79415 153.53125,214.1875 C 152.53138,233.89158 136.2324,249.59375 116.28125,249.59375 C 96.330096,249.59375 80.031123,233.89158 79.03125,214.1875 z "
             id="path2328" />
          <path
             id="path2330"
             d="M 79.03125,216.00319 C 79.001888,215.39654 78.96875,214.80457 78.96875,214.19069 C 78.96875,193.59595 95.68651,176.87819 116.28125,176.87819 C 136.87599,176.87819 153.59376,193.59595 153.59375,214.19069 C 153.59375,214.80457 153.56061,215.39654 153.53125,216.00319 C 152.53138,196.29911 136.2324,180.59694 116.28125,180.59694 C 96.330096,180.59694 80.031123,196.29911 79.03125,216.00319 z "
             style="fill:#000000;fill-opacity:0.34497818;fill-rule:evenodd;stroke:none;stroke-opacity:1" />
        </g>
      </g>
      <g
         transform="translate(86.8073,791.1881)"
         id="g2778">
        <path
           transform="matrix(0.866025,-0.5,0.5,0.866025,-32.87382,-42.56904)"
           d="M 157.14286 218.07646 A 42.857143 42.857143 0 1 1  71.42857,218.07646 A 42.857143 42.857143 0 1 1  157.14286 218.07646 z"
           sodipodi:ry="42.857143"
           sodipodi:rx="42.857143"
           sodipodi:cy="218.07646"
           sodipodi:cx="114.28571"
           id="path2780"
           style="fill:#ff0000;fill-opacity:1;fill-rule:evenodd;stroke:none;stroke-opacity:1"
           sodipodi:type="arc" />
        <g
           id="g2782"
           transform="matrix(0.866025,-0.5,0.5,0.866025,-33.11146,-38.98956)">
          <path
             id="path2784"
             d="M 79.03125,214.1875 C 79.001888,214.79415 78.96875,215.38612 78.96875,216 C 78.96875,236.59474 95.68651,253.3125 116.28125,253.3125 C 136.87599,253.3125 153.59376,236.59474 153.59375,216 C 153.59375,215.38612 153.56061,214.79415 153.53125,214.1875 C 152.53138,233.89158 136.2324,249.59375 116.28125,249.59375 C 96.330096,249.59375 80.031123,233.89158 79.03125,214.1875 z "
             style="fill:#ffffff;fill-opacity:0.71179038;fill-rule:evenodd;stroke:none;stroke-opacity:1" />
          <path
             style="fill:#000000;fill-opacity:0.34497818;fill-rule:evenodd;stroke:none;stroke-opacity:1"
             d="M 79.03125,216.00319 C 79.001888,215.39654 78.96875,214.80457 78.96875,214.19069 C 78.96875,193.59595 95.68651,176.87819 116.28125,176.87819 C 136.87599,176.87819 153.59376,193.59595 153.59375,214.19069 C 153.59375,214.80457 153.56061,215.39654 153.53125,216.00319 C 152.53138,196.29911 136.2324,180.59694 116.28125,180.59694 C 96.330096,180.59694 80.031123,196.29911 79.03125,216.00319 z "
             id="path2786" />
        </g>
      </g>
      <g
         transform="translate(-108.1493,890.6019)"
         id="g2788">
        <path
           sodipodi:type="arc"
           style="fill:#ff0000;fill-opacity:1;fill-rule:evenodd;stroke:none;stroke-opacity:1"
           id="path2790"
           sodipodi:cx="114.28571"
           sodipodi:cy="218.07646"
           sodipodi:rx="42.857143"
           sodipodi:ry="42.857143"
           d="M 157.14286 218.07646 A 42.857143 42.857143 0 1 1  71.42857,218.07646 A 42.857143 42.857143 0 1 1  157.14286 218.07646 z"
           transform="matrix(0.866025,-0.5,0.5,0.866025,-32.87382,-42.56904)" />
        <g
           transform="matrix(0.866025,-0.5,0.5,0.866025,-33.11146,-38.98956)"
           id="g2792">
          <path
             style="fill:#ffffff;fill-opacity:0.71179038;fill-rule:evenodd;stroke:none;stroke-opacity:1"
             d="M 79.03125,214.1875 C 79.001888,214.79415 78.96875,215.38612 78.96875,216 C 78.96875,236.59474 95.68651,253.3125 116.28125,253.3125 C 136.87599,253.3125 153.59376,236.59474 153.59375,216 C 153.59375,215.38612 153.56061,214.79415 153.53125,214.1875 C 152.53138,233.89158 136.2324,249.59375 116.28125,249.59375 C 96.330096,249.59375 80.031123,233.89158 79.03125,214.1875 z "
             id="path2794" />
          <path
             id="path2796"
             d="M 79.03125,216.00319 C 79.001888,215.39654 78.96875,214.80457 78.96875,214.19069 C 78.96875,193.59595 95.68651,176.87819 116.28125,176.87819 C 136.87599,176.87819 153.59376,193.59595 153.59375,214.19069 C 153.59375,214.80457 153.56061,215.39654 153.53125,216.00319 C 152.53138,196.29911 136.2324,180.59694 116.28125,180.59694 C 96.330096,180.59694 80.031123,196.29911 79.03125,216.00319 z "
             style="fill:#000000;fill-opacity:0.34497818;fill-rule:evenodd;stroke:none;stroke-opacity:1" />
        </g>
      </g>
      <g
         transform="translate(379.3961,890.2855)"
         id="g2798">
        <path
           transform="matrix(0.866025,-0.5,0.5,0.866025,-32.87382,-42.56904)"
           d="M 157.14286 218.07646 A 42.857143 42.857143 0 1 1  71.42857,218.07646 A 42.857143 42.857143 0 1 1  157.14286 218.07646 z"
           sodipodi:ry="42.857143"
           sodipodi:rx="42.857143"
           sodipodi:cy="218.07646"
           sodipodi:cx="114.28571"
           id="path2800"
           style="fill:#ff0000;fill-opacity:1;fill-rule:evenodd;stroke:none;stroke-opacity:1"
           sodipodi:type="arc" />
        <g
           id="g2802"
           transform="matrix(0.866025,-0.5,0.5,0.866025,-33.11146,-38.98956)">
          <path
             id="path2804"
             d="M 79.03125,214.1875 C 79.001888,214.79415 78.96875,215.38612 78.96875,216 C 78.96875,236.59474 95.68651,253.3125 116.28125,253.3125 C 136.87599,253.3125 153.59376,236.59474 153.59375,216 C 153.59375,215.38612 153.56061,214.79415 153.53125,214.1875 C 152.53138,233.89158 136.2324,249.59375 116.28125,249.59375 C 96.330096,249.59375 80.031123,233.89158 79.03125,214.1875 z "
             style="fill:#ffffff;fill-opacity:0.71179038;fill-rule:evenodd;stroke:none;stroke-opacity:1" />
          <path
             style="fill:#000000;fill-opacity:0.34497818;fill-rule:evenodd;stroke:none;stroke-opacity:1"
             d="M 79.03125,216.00319 C 79.001888,215.39654 78.96875,214.80457 78.96875,214.19069 C 78.96875,193.59595 95.68651,176.87819 116.28125,176.87819 C 136.87599,176.87819 153.59376,193.59595 153.59375,214.19069 C 153.59375,214.80457 153.56061,215.39654 153.53125,216.00319 C 152.53138,196.29911 136.2324,180.59694 116.28125,180.59694 C 96.330096,180.59694 80.031123,196.29911 79.03125,216.00319 z "
             id="path2806" />
        </g>
      </g>
      <g
         transform="translate(184.016,791.2319)"
         id="g2808">
        <path
           sodipodi:type="arc"
           style="fill:#ff0000;fill-opacity:1;fill-rule:evenodd;stroke:none;stroke-opacity:1"
           id="path2810"
           sodipodi:cx="114.28571"
           sodipodi:cy="218.07646"
           sodipodi:rx="42.857143"
           sodipodi:ry="42.857143"
           d="M 157.14286 218.07646 A 42.857143 42.857143 0 1 1  71.42857,218.07646 A 42.857143 42.857143 0 1 1  157.14286 218.07646 z"
           transform="matrix(0.866025,-0.5,0.5,0.866025,-32.87382,-42.56904)" />
        <g
           transform="matrix(0.866025,-0.5,0.5,0.866025,-33.11146,-38.98956)"
           id="g2812">
          <path
             style="fill:#ffffff;fill-opacity:0.71179038;fill-rule:evenodd;stroke:none;stroke-opacity:1"
             d="M 79.03125,214.1875 C 79.001888,214.79415 78.96875,215.38612 78.96875,216 C 78.96875,236.59474 95.68651,253.3125 116.28125,253.3125 C 136.87599,253.3125 153.59376,236.59474 153.59375,216 C 153.59375,215.38612 153.56061,214.79415 153.53125,214.1875 C 152.53138,233.89158 136.2324,249.59375 116.28125,249.59375 C 96.330096,249.59375 80.031123,233.89158 79.03125,214.1875 z "
             id="path2814" />
          <path
             id="path2816"
             d="M 79.03125,216.00319 C 79.001888,215.39654 78.96875,214.80457 78.96875,214.19069 C 78.96875,193.59595 95.68651,176.87819 116.28125,176.87819 C 136.87599,176.87819 153.59376,193.59595 153.59375,214.19069 C 153.59375,214.80457 153.56061,215.39654 153.53125,216.00319 C 152.53138,196.29911 136.2324,180.59694 116.28125,180.59694 C 96.330096,180.59694 80.031123,196.29911 79.03125,216.00319 z "
             style="fill:#000000;fill-opacity:0.34497818;fill-rule:evenodd;stroke:none;stroke-opacity:1" />
        </g>
      </g>
      <g
         transform="translate(281.5335,694.3973)"
         id="g2818">
        <path
           transform="matrix(0.866025,-0.5,0.5,0.866025,-32.87382,-42.56904)"
           d="M 157.14286 218.07646 A 42.857143 42.857143 0 1 1  71.42857,218.07646 A 42.857143 42.857143 0 1 1  157.14286 218.07646 z"
           sodipodi:ry="42.857143"
           sodipodi:rx="42.857143"
           sodipodi:cy="218.07646"
           sodipodi:cx="114.28571"
           id="path2820"
           style="fill:#ff0000;fill-opacity:1;fill-rule:evenodd;stroke:none;stroke-opacity:1"
           sodipodi:type="arc" />
        <g
           id="g2822"
           transform="matrix(0.866025,-0.5,0.5,0.866025,-33.11146,-38.98956)">
          <path
             id="path2824"
             d="M 79.03125,214.1875 C 79.001888,214.79415 78.96875,215.38612 78.96875,216 C 78.96875,236.59474 95.68651,253.3125 116.28125,253.3125 C 136.87599,253.3125 153.59376,236.59474 153.59375,216 C 153.59375,215.38612 153.56061,214.79415 153.53125,214.1875 C 152.53138,233.89158 136.2324,249.59375 116.28125,249.59375 C 96.330096,249.59375 80.031123,233.89158 79.03125,214.1875 z "
             style="fill:#ffffff;fill-opacity:0.71179038;fill-rule:evenodd;stroke:none;stroke-opacity:1" />
          <path
             style="fill:#000000;fill-opacity:0.34497818;fill-rule:evenodd;stroke:none;stroke-opacity:1"
             d="M 79.03125,216.00319 C 79.001888,215.39654 78.96875,214.80457 78.96875,214.19069 C 78.96875,193.59595 95.68651,176.87819 116.28125,176.87819 C 136.87599,176.87819 153.59376,193.59595 153.59375,214.19069 C 153.59375,214.80457 153.56061,215.39654 153.53125,216.00319 C 152.53138,196.29911 136.2324,180.59694 116.28125,180.59694 C 96.330096,180.59694 80.031123,196.29911 79.03125,216.00319 z "
             id="path2826" />
        </g>
      </g>
      <g
         transform="translate(281.5524,890.239)"
         id="g2828">
        <path
           sodipodi:type="arc"
           style="fill:#ff0000;fill-opacity:1;fill-rule:evenodd;stroke:none;stroke-opacity:1"
           id="path2830"
           sodipodi:cx="114.28571"
           sodipodi:cy="218.07646"
           sodipodi:rx="42.857143"
           sodipodi:ry="42.857143"
           d="M 157.14286 218.07646 A 42.857143 42.857143 0 1 1  71.42857,218.07646 A 42.857143 42.857143 0 1 1  157.14286 218.07646 z"
           transform="matrix(0.866025,-0.5,0.5,0.866025,-32.87382,-42.56904)" />
        <g
           transform="matrix(0.866025,-0.5,0.5,0.866025,-33.11146,-38.98956)"
           id="g2832">
          <path
             style="fill:#ffffff;fill-opacity:0.71179038;fill-rule:evenodd;stroke:none;stroke-opacity:1"
             d="M 79.03125,214.1875 C 79.001888,214.79415 78.96875,215.38612 78.96875,216 C 78.96875,236.59474 95.68651,253.3125 116.28125,253.3125 C 136.87599,253.3125 153.59376,236.59474 153.59375,216 C 153.59375,215.38612 153.56061,214.79415 153.53125,214.1875 C 152.53138,233.89158 136.2324,249.59375 116.28125,249.59375 C 96.330096,249.59375 80.031123,233.89158 79.03125,214.1875 z "
             id="path2834" />
          <path
             id="path2836"
             d="M 79.03125,216.00319 C 79.001888,215.39654 78.96875,214.80457 78.96875,214.19069 C 78.96875,193.59595 95.68651,176.87819 116.28125,176.87819 C 136.87599,176.87819 153.59376,193.59595 153.59375,214.19069 C 153.59375,214.80457 153.56061,215.39654 153.53125,216.00319 C 152.53138,196.29911 136.2324,180.59694 116.28125,180.59694 C 96.330096,180.59694 80.031123,196.29911 79.03125,216.00319 z "
             style="fill:#000000;fill-opacity:0.34497818;fill-rule:evenodd;stroke:none;stroke-opacity:1" />
        </g>
      </g>
      <g
         transform="translate(-96.59798,661.8471)"
         id="g2866">
        <path
           transform="matrix(0.866025,-0.5,0.5,0.866025,247.0361,185.3576)"
           d="M 157.14286 218.07646 A 42.857143 42.857143 0 1 1  71.42857,218.07646 A 42.857143 42.857143 0 1 1  157.14286 218.07646 z"
           sodipodi:ry="42.857143"
           sodipodi:rx="42.857143"
           sodipodi:cy="218.07646"
           sodipodi:cx="114.28571"
           id="path2840"
           style="fill:#ffae00;fill-opacity:1;fill-rule:evenodd;stroke:none;stroke-opacity:1"
           sodipodi:type="arc" />
        <g
           id="g2842"
           transform="matrix(0.866025,-0.5,0.5,0.866025,246.7984,188.937)">
          <path
             id="path2844"
             d="M 79.03125,214.1875 C 79.001888,214.79415 78.96875,215.38612 78.96875,216 C 78.96875,236.59474 95.68651,253.3125 116.28125,253.3125 C 136.87599,253.3125 153.59376,236.59474 153.59375,216 C 153.59375,215.38612 153.56061,214.79415 153.53125,214.1875 C 152.53138,233.89158 136.2324,249.59375 116.28125,249.59375 C 96.330096,249.59375 80.031123,233.89158 79.03125,214.1875 z "
             style="fill:#ffffff;fill-opacity:0.71179038;fill-rule:evenodd;stroke:none;stroke-opacity:1" />
          <path
             style="fill:#000000;fill-opacity:0.34497818;fill-rule:evenodd;stroke:none;stroke-opacity:1"
             d="M 79.03125,216.00319 C 79.001888,215.39654 78.96875,214.80457 78.96875,214.19069 C 78.96875,193.59595 95.68651,176.87819 116.28125,176.87819 C 136.87599,176.87819 153.59376,193.59595 153.59375,214.19069 C 153.59375,214.80457 153.56061,215.39654 153.53125,216.00319 C 152.53138,196.29911 136.2324,180.59694 116.28125,180.59694 C 96.330096,180.59694 80.031123,196.29911 79.03125,216.00319 z "
             id="path2846" />
        </g>
      </g>
      <g
         transform="translate(-290.1574,662.3705)"
         id="g2872">
        <path
           sodipodi:type="arc"
           style="fill:#ffae00;fill-opacity:1;fill-rule:evenodd;stroke:none;stroke-opacity:1"
           id="path2874"
           sodipodi:cx="114.28571"
           sodipodi:cy="218.07646"
           sodipodi:rx="42.857143"
           sodipodi:ry="42.857143"
           d="M 157.14286 218.07646 A 42.857143 42.857143 0 1 1  71.42857,218.07646 A 42.857143 42.857143 0 1 1  157.14286 218.07646 z"
           transform="matrix(0.866025,-0.5,0.5,0.866025,247.0361,185.3576)" />
        <g
           transform="matrix(0.866025,-0.5,0.5,0.866025,246.7984,188.937)"
           id="g2876">
          <path
             style="fill:#ffffff;fill-opacity:0.71179038;fill-rule:evenodd;stroke:none;stroke-opacity:1"
             d="M 79.03125,214.1875 C 79.001888,214.79415 78.96875,215.38612 78.96875,216 C 78.96875,236.59474 95.68651,253.3125 116.28125,253.3125 C 136.87599,253.3125 153.59376,236.59474 153.59375,216 C 153.59375,215.38612 153.56061,214.79415 153.53125,214.1875 C 152.53138,233.89158 136.2324,249.59375 116.28125,249.59375 C 96.330096,249.59375 80.031123,233.89158 79.03125,214.1875 z "
             id="path2878" />
          <path
             id="path2880"
             d="M 79.03125,216.00319 C 79.001888,215.39654 78.96875,214.80457 78.96875,214.19069 C 78.96875,193.59595 95.68651,176.87819 116.28125,176.87819 C 136.87599,176.87819 153.59376,193.59595 153.59375,214.19069 C 153.59375,214.80457 153.56061,215.39654 153.53125,216.00319 C 152.53138,196.29911 136.2324,180.59694 116.28125,180.59694 C 96.330096,180.59694 80.031123,196.29911 79.03125,216.00319 z "
             style="fill:#000000;fill-opacity:0.34497818;fill-rule:evenodd;stroke:none;stroke-opacity:1" />
        </g>
      </g>
      <g
         transform="translate(-193.8623,662.6467)"
         id="g2882">
        <path
           transform="matrix(0.866025,-0.5,0.5,0.866025,247.0361,185.3576)"
           d="M 157.14286 218.07646 A 42.857143 42.857143 0 1 1  71.42857,218.07646 A 42.857143 42.857143 0 1 1  157.14286 218.07646 z"
           sodipodi:ry="42.857143"
           sodipodi:rx="42.857143"
           sodipodi:cy="218.07646"
           sodipodi:cx="114.28571"
           id="path2884"
           style="fill:#ffae00;fill-opacity:1;fill-rule:evenodd;stroke:none;stroke-opacity:1"
           sodipodi:type="arc" />
        <g
           id="g2886"
           transform="matrix(0.866025,-0.5,0.5,0.866025,246.7984,188.937)">
          <path
             id="path2888"
             d="M 79.03125,214.1875 C 79.001888,214.79415 78.96875,215.38612 78.96875,216 C 78.96875,236.59474 95.68651,253.3125 116.28125,253.3125 C 136.87599,253.3125 153.59376,236.59474 153.59375,216 C 153.59375,215.38612 153.56061,214.79415 153.53125,214.1875 C 152.53138,233.89158 136.2324,249.59375 116.28125,249.59375 C 96.330096,249.59375 80.031123,233.89158 79.03125,214.1875 z "
             style="fill:#ffffff;fill-opacity:0.71179038;fill-rule:evenodd;stroke:none;stroke-opacity:1" />
          <path
             style="fill:#000000;fill-opacity:0.34497818;fill-rule:evenodd;stroke:none;stroke-opacity:1"
             d="M 79.03125,216.00319 C 79.001888,215.39654 78.96875,214.80457 78.96875,214.19069 C 78.96875,193.59595 95.68651,176.87819 116.28125,176.87819 C 136.87599,176.87819 153.59376,193.59595 153.59375,214.19069 C 153.59375,214.80457 153.56061,215.39654 153.53125,216.00319 C 152.53138,196.29911 136.2324,180.59694 116.28125,180.59694 C 96.330096,180.59694 80.031123,196.29911 79.03125,216.00319 z "
             id="path2890" />
        </g>
      </g>
      <g
         transform="translate(-290.1006,565.7465)"
         id="g2892">
        <path
           sodipodi:type="arc"
           style="fill:#ffae00;fill-opacity:1;fill-rule:evenodd;stroke:none;stroke-opacity:1"
           id="path2894"
           sodipodi:cx="114.28571"
           sodipodi:cy="218.07646"
           sodipodi:rx="42.857143"
           sodipodi:ry="42.857143"
           d="M 157.14286 218.07646 A 42.857143 42.857143 0 1 1  71.42857,218.07646 A 42.857143 42.857143 0 1 1  157.14286 218.07646 z"
           transform="matrix(0.866025,-0.5,0.5,0.866025,247.0361,185.3576)" />
        <g
           transform="matrix(0.866025,-0.5,0.5,0.866025,246.7984,188.937)"
           id="g2896">
          <path
             style="fill:#ffffff;fill-opacity:0.71179038;fill-rule:evenodd;stroke:none;stroke-opacity:1"
             d="M 79.03125,214.1875 C 79.001888,214.79415 78.96875,215.38612 78.96875,216 C 78.96875,236.59474 95.68651,253.3125 116.28125,253.3125 C 136.87599,253.3125 153.59376,236.59474 153.59375,216 C 153.59375,215.38612 153.56061,214.79415 153.53125,214.1875 C 152.53138,233.89158 136.2324,249.59375 116.28125,249.59375 C 96.330096,249.59375 80.031123,233.89158 79.03125,214.1875 z "
             id="path2898" />
          <path
             id="path2900"
             d="M 79.03125,216.00319 C 79.001888,215.39654 78.96875,214.80457 78.96875,214.19069 C 78.96875,193.59595 95.68651,176.87819 116.28125,176.87819 C 136.87599,176.87819 153.59376,193.59595 153.59375,214.19069 C 153.59375,214.80457 153.56061,215.39654 153.53125,216.00319 C 152.53138,196.29911 136.2324,180.59694 116.28125,180.59694 C 96.330096,180.59694 80.031123,196.29911 79.03125,216.00319 z "
             style="fill:#000000;fill-opacity:0.34497818;fill-rule:evenodd;stroke:none;stroke-opacity:1" />
        </g>
      </g>
      <g
         transform="translate(0.888735,563.7588)"
         id="g2902">
        <path
           transform="matrix(0.866025,-0.5,0.5,0.866025,247.0361,185.3576)"
           d="M 157.14286 218.07646 A 42.857143 42.857143 0 1 1  71.42857,218.07646 A 42.857143 42.857143 0 1 1  157.14286 218.07646 z"
           sodipodi:ry="42.857143"
           sodipodi:rx="42.857143"
           sodipodi:cy="218.07646"
           sodipodi:cx="114.28571"
           id="path2904"
           style="fill:#ffae00;fill-opacity:1;fill-rule:evenodd;stroke:none;stroke-opacity:1"
           sodipodi:type="arc" />
        <g
           id="g2906"
           transform="matrix(0.866025,-0.5,0.5,0.866025,246.7984,188.937)">
          <path
             id="path2908"
             d="M 79.03125,214.1875 C 79.001888,214.79415 78.96875,215.38612 78.96875,216 C 78.96875,236.59474 95.68651,253.3125 116.28125,253.3125 C 136.87599,253.3125 153.59376,236.59474 153.59375,216 C 153.59375,215.38612 153.56061,214.79415 153.53125,214.1875 C 152.53138,233.89158 136.2324,249.59375 116.28125,249.59375 C 96.330096,249.59375 80.031123,233.89158 79.03125,214.1875 z "
             style="fill:#ffffff;fill-opacity:0.71179038;fill-rule:evenodd;stroke:none;stroke-opacity:1" />
          <path
             style="fill:#000000;fill-opacity:0.34497818;fill-rule:evenodd;stroke:none;stroke-opacity:1"
             d="M 79.03125,216.00319 C 79.001888,215.39654 78.96875,214.80457 78.96875,214.19069 C 78.96875,193.59595 95.68651,176.87819 116.28125,176.87819 C 136.87599,176.87819 153.59376,193.59595 153.59375,214.19069 C 153.59375,214.80457 153.56061,215.39654 153.53125,216.00319 C 152.53138,196.29911 136.2324,180.59694 116.28125,180.59694 C 96.330096,180.59694 80.031123,196.29911 79.03125,216.00319 z "
             id="path2910" />
        </g>
      </g>
      <g
         transform="translate(-193.9272,366.8768)"
         id="g2912">
        <path
           sodipodi:type="arc"
           style="fill:#ffae00;fill-opacity:1;fill-rule:evenodd;stroke:none;stroke-opacity:1"
           id="path2914"
           sodipodi:cx="114.28571"
           sodipodi:cy="218.07646"
           sodipodi:rx="42.857143"
           sodipodi:ry="42.857143"
           d="M 157.14286 218.07646 A 42.857143 42.857143 0 1 1  71.42857,218.07646 A 42.857143 42.857143 0 1 1  157.14286 218.07646 z"
           transform="matrix(0.866025,-0.5,0.5,0.866025,247.0361,185.3576)" />
        <g
           transform="matrix(0.866025,-0.5,0.5,0.866025,246.7984,188.937)"
           id="g2916">
          <path
             style="fill:#ffffff;fill-opacity:0.71179038;fill-rule:evenodd;stroke:none;stroke-opacity:1"
             d="M 79.03125,214.1875 C 79.001888,214.79415 78.96875,215.38612 78.96875,216 C 78.96875,236.59474 95.68651,253.3125 116.28125,253.3125 C 136.87599,253.3125 153.59376,236.59474 153.59375,216 C 153.59375,215.38612 153.56061,214.79415 153.53125,214.1875 C 152.53138,233.89158 136.2324,249.59375 116.28125,249.59375 C 96.330096,249.59375 80.031123,233.89158 79.03125,214.1875 z "
             id="path2918" />
          <path
             id="path2920"
             d="M 79.03125,216.00319 C 79.001888,215.39654 78.96875,214.80457 78.96875,214.19069 C 78.96875,193.59595 95.68651,176.87819 116.28125,176.87819 C 136.87599,176.87819 153.59376,193.59595 153.59375,214.19069 C 153.59375,214.80457 153.56061,215.39654 153.53125,216.00319 C 152.53138,196.29911 136.2324,180.59694 116.28125,180.59694 C 96.330096,180.59694 80.031123,196.29911 79.03125,216.00319 z "
             style="fill:#000000;fill-opacity:0.34497818;fill-rule:evenodd;stroke:none;stroke-opacity:1" />
        </g>
      </g>
      <g
         transform="matrix(0.966735,0,0,0.97851,-4.860715,36.75614)"
         id="g2643">
        <path
           style="fill:#002ae0;fill-opacity:1;fill-rule:evenodd;stroke:none;stroke-opacity:1"
           d="M 14.15625,1028.125 L 14.15625,407.875 L 735.40625,407.875 L 735.40625,1028.125 L 14.15625,1028.125 z M 72.625,1006.8438 C 72.714777,1006.8472 72.816333,1006.8409 72.90625,1006.8438 C 73.364793,1006.8583 73.819196,1006.8438 74.28125,1006.8438 C 97.938393,1006.8438 117.15625,987.65714 117.15625,964 C 117.15625,940.34287 97.938393,921.125 74.28125,921.125 C 50.624107,921.12502 31.4375,940.34286 31.4375,964 C 31.4375,987.10449 49.731815,1005.9754 72.625,1006.8438 z M 173.34375,1006.8438 C 173.43353,1006.8472 173.53508,1006.8409 173.625,1006.8438 C 174.08354,1006.8583 174.53795,1006.8438 175,1006.8438 C 198.65715,1006.8438 217.84375,987.65714 217.84375,964 C 217.84375,940.34287 198.65714,921.125 175,921.125 C 151.34286,921.12502 132.15625,940.34286 132.15625,964 C 132.15626,987.10449 150.45056,1005.9754 173.34375,1006.8438 z M 274.0625,1006.8438 C 274.15228,1006.8472 274.25383,1006.8409 274.34375,1006.8438 C 274.80229,1006.8583 275.2567,1006.8438 275.71875,1006.8438 C 299.37588,1006.8438 318.5625,987.65714 318.5625,964 C 318.56251,940.34287 299.37589,921.125 275.71875,921.125 C 252.0616,921.12502 232.84375,940.34286 232.84375,964 C 232.84376,987.10449 251.16907,1005.9754 274.0625,1006.8438 z M 374.78125,1006.8438 C 374.87103,1006.8472 374.97258,1006.8409 375.0625,1006.8438 C 375.52104,1006.8583 375.97545,1006.8438 376.4375,1006.8438 C 400.09464,1006.8438 419.28125,987.65714 419.28125,964 C 419.28124,940.34287 400.09464,921.125 376.4375,921.125 C 352.78035,921.12502 333.5625,940.34286 333.5625,964 C 333.5625,987.10449 351.88782,1005.9754 374.78125,1006.8438 z M 475.46875,1006.8438 C 475.55853,1006.8472 475.66008,1006.8409 475.75,1006.8438 C 476.20854,1006.8583 476.6942,1006.8438 477.15625,1006.8438 C 500.81339,1006.8438 520,987.65714 520,964 C 520,940.34287 500.81339,921.125 477.15625,921.125 C 453.49911,921.12502 434.28125,940.34286 434.28125,964 C 434.28125,987.10449 452.57556,1005.9754 475.46875,1006.8438 z M 576.1875,1006.8438 C 576.27728,1006.8472 576.37883,1006.8409 576.46875,1006.8438 C 576.92729,1006.8583 577.3817,1006.8438 577.84375,1006.8438 C 601.50089,1006.8438 620.71875,987.65714 620.71875,964 C 620.71877,940.34287 601.50089,921.125 577.84375,921.125 C 554.1866,921.12502 535,940.34286 535,964 C 534.99997,987.10449 553.29431,1005.9754 576.1875,1006.8438 z M 676.90625,1006.8438 C 676.99603,1006.8472 677.09758,1006.8409 677.1875,1006.8438 C 677.64604,1006.8583 678.10045,1006.8438 678.5625,1006.8438 C 702.21965,1006.8438 721.4375,987.65714 721.4375,964 C 721.43753,940.34287 702.21964,921.125 678.5625,921.125 C 654.90536,921.12502 635.71875,940.34286 635.71875,964 C 635.71873,987.10449 654.01306,1005.9754 676.90625,1006.8438 z M 72.625,906.125 C 72.714777,906.12841 72.816333,906.12215 72.90625,906.125 C 73.364793,906.13954 73.819196,906.125 74.28125,906.125 C 97.938393,906.125 117.15625,886.93839 117.15625,863.28125 C 117.15625,839.62408 97.938393,820.4375 74.28125,820.4375 C 50.624107,820.43751 31.4375,839.62411 31.4375,863.28125 C 31.4375,886.38571 49.731815,905.25668 72.625,906.125 z M 173.34375,906.125 C 173.43353,906.12841 173.53508,906.12215 173.625,906.125 C 174.08354,906.13954 174.53795,906.125 175,906.125 C 198.65715,906.125 217.84375,886.93839 217.84375,863.28125 C 217.84375,839.62408 198.65714,820.4375 175,820.4375 C 151.34286,820.43751 132.15625,839.62411 132.15625,863.28125 C 132.15626,886.38571 150.45056,905.25668 173.34375,906.125 z M 274.0625,906.125 C 274.15228,906.12841 274.25383,906.12215 274.34375,906.125 C 274.80229,906.13954 275.2567,906.125 275.71875,906.125 C 299.37588,906.125 318.5625,886.93839 318.5625,863.28125 C 318.56251,839.62408 299.37589,820.4375 275.71875,820.4375 C 252.0616,820.43751 232.84375,839.62411 232.84375,863.28125 C 232.84376,886.38571 251.16907,905.25668 274.0625,906.125 z M 374.78125,906.125 C 374.87103,906.12841 374.97258,906.12215 375.0625,906.125 C 375.52104,906.13954 375.97545,906.125 376.4375,906.125 C 400.09464,906.125 419.28125,886.93839 419.28125,863.28125 C 419.28124,839.62408 400.09464,820.4375 376.4375,820.4375 C 352.78035,820.43751 333.5625,839.62411 333.5625,863.28125 C 333.5625,886.38571 351.88782,905.25668 374.78125,906.125 z M 475.46875,906.125 C 475.55853,906.12841 475.66008,906.12215 475.75,906.125 C 476.20854,906.13954 476.6942,906.125 477.15625,906.125 C 500.81339,906.125 520,886.93839 520,863.28125 C 520,839.62408 500.81339,820.4375 477.15625,820.4375 C 453.49911,820.43751 434.28125,839.62411 434.28125,863.28125 C 434.28125,886.38571 452.57556,905.25668 475.46875,906.125 z M 576.1875,906.125 C 576.27728,906.12841 576.37883,906.12215 576.46875,906.125 C 576.92729,906.13954 577.3817,906.125 577.84375,906.125 C 601.50089,906.125 620.71875,886.93839 620.71875,863.28125 C 620.71877,839.62408 601.50089,820.4375 577.84375,820.4375 C 554.1866,820.43751 535,839.62411 535,863.28125 C 534.99997,886.38571 553.29431,905.25668 576.1875,906.125 z M 676.90625,906.125 C 676.99603,906.12841 677.09758,906.12215 677.1875,906.125 C 677.64604,906.13954 678.10045,906.125 678.5625,906.125 C 702.21965,906.125 721.4375,886.93839 721.4375,863.28125 C 721.43753,839.62408 702.21964,820.4375 678.5625,820.4375 C 654.90536,820.43751 635.71875,839.62411 635.71875,863.28125 C 635.71873,886.38571 654.01306,905.25668 676.90625,906.125 z M 73.1875,805.4375 C 73.461982,805.44445 73.72426,805.43575 74,805.4375 C 74.092274,805.43809 74.188839,805.4375 74.28125,805.4375 C 97.938393,805.4375 117.15625,786.21964 117.15625,762.5625 C 117.15625,738.90533 97.938393,719.71875 74.28125,719.71875 C 50.624107,719.71876 31.4375,738.90536 31.4375,762.5625 C 31.4375,785.85105 50.039557,804.85167 73.1875,805.4375 z M 173.90625,805.4375 C 174.18073,805.44445 174.44301,805.43575 174.71875,805.4375 C 174.81102,805.43809 174.90759,805.4375 175,805.4375 C 198.65715,805.4375 217.84375,786.21964 217.84375,762.5625 C 217.84375,738.90533 198.65714,719.71875 175,719.71875 C 151.34286,719.71876 132.15625,738.90536 132.15625,762.5625 C 132.15626,785.85105 150.75831,804.85167 173.90625,805.4375 z M 274.625,805.4375 C 274.89949,805.44445 275.16176,805.43575 275.4375,805.4375 C 275.52977,805.43809 275.62634,805.4375 275.71875,805.4375 C 299.37588,805.4375 318.5625,786.21964 318.5625,762.5625 C 318.56251,738.90533 299.37589,719.71875 275.71875,719.71875 C 252.0616,719.71876 232.84375,738.90536 232.84375,762.5625 C 232.84376,785.85105 251.47634,804.85167 274.625,805.4375 z M 375.34375,805.4375 C 375.61824,805.44445 375.88051,805.43575 376.15625,805.4375 C 376.24852,805.43809 376.34509,805.4375 376.4375,805.4375 C 400.09464,805.4375 419.28125,786.21964 419.28125,762.5625 C 419.28124,738.90533 400.09464,719.71875 376.4375,719.71875 C 352.78035,719.71876 333.5625,738.90536 333.5625,762.5625 C 333.5625,785.85105 352.19509,804.85167 375.34375,805.4375 z M 476.0625,805.4375 C 476.33699,805.44445 476.59926,805.43575 476.875,805.4375 C 476.96727,805.43809 477.06384,805.4375 477.15625,805.4375 C 500.81339,805.4375 520,786.21964 520,762.5625 C 520,738.90533 500.81339,719.71875 477.15625,719.71875 C 453.49911,719.71876 434.28125,738.90536 434.28125,762.5625 C 434.28125,785.85105 452.91384,804.85167 476.0625,805.4375 z M 576.78125,805.4375 C 577.05574,805.44445 577.31801,805.43575 577.59375,805.4375 C 577.68602,805.43809 577.75134,805.4375 577.84375,805.4375 C 601.50089,805.4375 620.71875,786.21964 620.71875,762.5625 C 620.71877,738.90533 601.50089,719.71875 577.84375,719.71875 C 554.1866,719.71876 535,738.90536 535,762.5625 C 534.99997,785.85105 553.63259,804.85167 576.78125,805.4375 z M 677.46875,805.4375 C 677.74323,805.44445 678.00551,805.43575 678.28125,805.4375 C 678.37352,805.43809 678.47009,805.4375 678.5625,805.4375 C 702.21965,805.4375 721.4375,786.21964 721.4375,762.5625 C 721.43753,738.90533 702.21964,719.71875 678.5625,719.71875 C 654.90536,719.71876 635.71875,738.90536 635.71875,762.5625 C 635.71873,785.85105 654.32081,804.85167 677.46875,805.4375 z M 73.15625,704.71875 C 73.338522,704.72336 73.535919,704.71643 73.71875,704.71875 C 73.90302,704.72109 74.096429,704.71875 74.28125,704.71875 C 97.938393,704.71874 117.15625,685.50089 117.15625,661.84375 C 117.15625,638.18663 97.938393,619 74.28125,619 C 50.624107,619 31.4375,638.18661 31.4375,661.84375 C 31.4375,685.13272 50.007746,704.13359 73.15625,704.71875 z M 173.875,704.71875 C 174.05727,704.72336 174.25467,704.71643 174.4375,704.71875 C 174.62177,704.72109 174.81518,704.71875 175,704.71875 C 198.65715,704.71874 217.84375,685.50089 217.84375,661.84375 C 217.84375,638.18663 198.65714,619 175,619 C 151.34286,619 132.15625,638.18661 132.15625,661.84375 C 132.15626,685.13272 150.7265,704.13359 173.875,704.71875 z M 274.59375,704.71875 C 274.77603,704.72336 274.97342,704.71643 275.15625,704.71875 C 275.34052,704.72109 275.53393,704.71875 275.71875,704.71875 C 299.37588,704.71874 318.5625,685.50089 318.5625,661.84375 C 318.56251,638.18663 299.37589,619 275.71875,619 C 252.0616,619 232.84375,638.18661 232.84375,661.84375 C 232.84376,685.13272 251.44477,704.13359 274.59375,704.71875 z M 375.3125,704.71875 C 375.49478,704.72336 375.69217,704.71643 375.875,704.71875 C 376.05927,704.72109 376.25268,704.71875 376.4375,704.71875 C 400.09464,704.71874 419.28125,685.50089 419.28125,661.84375 C 419.28124,638.18663 400.09464,619 376.4375,619 C 352.78035,619 333.5625,638.18661 333.5625,661.84375 C 333.5625,685.13272 352.16352,704.13359 375.3125,704.71875 z M 476.03125,704.71875 C 476.21353,704.72336 476.41092,704.71643 476.59375,704.71875 C 476.77802,704.72109 476.97143,704.71875 477.15625,704.71875 C 500.81339,704.71874 520,685.50089 520,661.84375 C 520,638.18663 500.81339,619 477.15625,619 C 453.49911,619 434.28125,638.18661 434.28125,661.84375 C 434.28125,685.13272 452.88227,704.13359 476.03125,704.71875 z M 576.75,704.71875 C 576.93228,704.72336 577.12967,704.71643 577.3125,704.71875 C 577.49677,704.72109 577.65893,704.71875 577.84375,704.71875 C 601.50089,704.71874 620.71875,685.50089 620.71875,661.84375 C 620.71877,638.18663 601.50089,619 577.84375,619 C 554.1866,619 535,638.18661 535,661.84375 C 534.99997,685.13272 553.60102,704.13359 576.75,704.71875 z M 677.46875,704.71875 C 677.65103,704.72336 677.84842,704.71643 678.03125,704.71875 C 678.21552,704.72109 678.37768,704.71875 678.5625,704.71875 C 702.21965,704.71874 721.4375,685.50089 721.4375,661.84375 C 721.43753,638.18663 702.21964,619 678.5625,619 C 654.90536,619 635.71875,638.18661 635.71875,661.84375 C 635.71873,685.13272 654.31977,704.13359 677.46875,704.71875 z M 72.9375,604 C 73.118775,604.00572 73.286917,603.99654 73.46875,604 C 73.744734,604.00525 74.004018,604 74.28125,604 C 97.938393,604.00003 117.15625,584.78214 117.15625,561.125 C 117.15625,537.46786 97.938393,518.28125 74.28125,518.28125 C 50.624107,518.28122 31.4375,537.46786 31.4375,561.125 C 31.4375,584.32225 49.915569,603.27309 72.9375,604 z M 173.625,604 C 173.80627,604.00572 173.97442,603.99654 174.15625,604 C 174.43223,604.00525 174.72277,604 175,604 C 198.65715,604.00003 217.84375,584.78214 217.84375,561.125 C 217.84375,537.46786 198.65714,518.28125 175,518.28125 C 151.34286,518.28122 132.15625,537.46786 132.15625,561.125 C 132.15626,584.32225 150.60355,603.27309 173.625,604 z M 274.34375,604 C 274.52503,604.00572 274.69317,603.99654 274.875,604 C 275.15098,604.00525 275.44152,604 275.71875,604 C 299.37588,604.00003 318.5625,584.78214 318.5625,561.125 C 318.56251,537.46786 299.37589,518.28125 275.71875,518.28125 C 252.0616,518.28122 232.84375,537.46786 232.84375,561.125 C 232.84376,584.32225 251.32182,603.27309 274.34375,604 z M 375.0625,604 C 375.24378,604.00572 375.41192,603.99654 375.59375,604 C 375.86973,604.00525 376.16027,604 376.4375,604 C 400.09464,604.00003 419.28125,584.78214 419.28125,561.125 C 419.28124,537.46786 400.09464,518.28125 376.4375,518.28125 C 352.78035,518.28122 333.5625,537.46786 333.5625,561.125 C 333.5625,584.32225 352.04057,603.27309 375.0625,604 z M 475.78125,604 C 475.96253,604.00572 476.13067,603.99654 476.3125,604 C 476.58848,604.00525 476.87902,604 477.15625,604 C 500.81339,604.00003 520,584.78214 520,561.125 C 520,537.46786 500.81339,518.28125 477.15625,518.28125 C 453.49911,518.28122 434.28125,537.46786 434.28125,561.125 C 434.28125,584.32225 452.75932,603.27309 475.78125,604 z M 576.5,604 C 576.68128,604.00572 576.84942,603.99654 577.03125,604 C 577.30723,604.00525 577.56652,604 577.84375,604 C 601.50089,604.00003 620.71875,584.78214 620.71875,561.125 C 620.71877,537.46786 601.50089,518.28125 577.84375,518.28125 C 554.1866,518.28122 535,537.46786 535,561.125 C 534.99997,584.32225 553.47807,603.27309 576.5,604 z M 677.21875,604 C 677.40003,604.00572 677.56817,603.99654 677.75,604 C 678.02598,604.00525 678.28527,604 678.5625,604 C 702.21965,604.00003 721.4375,584.78214 721.4375,561.125 C 721.43753,537.46786 702.21964,518.28125 678.5625,518.28125 C 654.90536,518.28122 635.71875,537.46786 635.71875,561.125 C 635.71873,584.32225 654.19682,603.27309 677.21875,604 z M 72.90625,503.28125 C 72.996528,503.2841 73.097083,503.27896 73.1875,503.28125 C 73.55491,503.29057 73.911607,503.28125 74.28125,503.28125 C 97.938393,503.28127 117.15625,484.09464 117.15625,460.4375 C 117.15625,436.78035 97.938393,417.5625 74.28125,417.5625 C 50.624107,417.5625 31.4375,436.78036 31.4375,460.4375 C 31.4375,483.63402 49.885392,502.55363 72.90625,503.28125 z M 173.625,503.28125 C 173.71528,503.2841 173.81583,503.27896 173.90625,503.28125 C 174.27366,503.29057 174.63036,503.28125 175,503.28125 C 198.65715,503.28127 217.84375,484.09464 217.84375,460.4375 C 217.84375,436.78035 198.65714,417.5625 175,417.5625 C 151.34286,417.5625 132.15625,436.78036 132.15625,460.4375 C 132.15626,483.63402 150.60414,502.55363 173.625,503.28125 z M 274.3125,503.28125 C 274.40278,503.2841 274.50333,503.27896 274.59375,503.28125 C 274.96116,503.29057 275.34911,503.28125 275.71875,503.28125 C 299.37588,503.28127 318.5625,484.09464 318.5625,460.4375 C 318.56251,436.78035 299.37589,417.5625 275.71875,417.5625 C 252.0616,417.5625 232.84375,436.78036 232.84375,460.4375 C 232.84376,483.63402 251.29164,502.55363 274.3125,503.28125 z M 375.03125,503.28125 C 375.12153,503.2841 375.22208,503.27896 375.3125,503.28125 C 375.67991,503.29057 376.06786,503.28125 376.4375,503.28125 C 400.09464,503.28127 419.28125,484.09464 419.28125,460.4375 C 419.28124,436.78035 400.09464,417.5625 376.4375,417.5625 C 352.78035,417.5625 333.5625,436.78036 333.5625,460.4375 C 333.5625,483.63402 352.01039,502.55363 375.03125,503.28125 z M 475.75,503.28125 C 475.84028,503.2841 475.94083,503.27896 476.03125,503.28125 C 476.39866,503.29057 476.78661,503.28125 477.15625,503.28125 C 500.81339,503.28127 520,484.09464 520,460.4375 C 520,436.78035 500.81339,417.5625 477.15625,417.5625 C 453.49911,417.5625 434.28125,436.78036 434.28125,460.4375 C 434.28125,483.63402 452.72914,502.55363 475.75,503.28125 z M 576.46875,503.28125 C 576.55903,503.2841 576.65958,503.27896 576.75,503.28125 C 577.11741,503.29057 577.47411,503.28125 577.84375,503.28125 C 601.50089,503.28127 620.71875,484.09464 620.71875,460.4375 C 620.71877,436.78035 601.50089,417.5625 577.84375,417.5625 C 554.1866,417.5625 535,436.78036 535,460.4375 C 534.99997,483.63402 553.44789,502.55363 576.46875,503.28125 z M 677.1875,503.28125 C 677.27778,503.2841 677.37833,503.27896 677.46875,503.28125 C 677.83616,503.29057 678.19286,503.28125 678.5625,503.28125 C 702.21965,503.28127 721.4375,484.09464 721.4375,460.4375 C 721.43753,436.78035 702.21964,417.5625 678.5625,417.5625 C 654.90536,417.5625 635.71875,436.78036 635.71875,460.4375 C 635.71873,483.63402 654.16664,502.55363 677.1875,503.28125 z "
           id="rect2344" />
        <g
           id="g2400"
           transform="translate(0,403.6854)">
          <g
             transform="matrix(-1,1.110223e-16,-1.110223e-16,-1,652.1114,920.2434)"
             id="g2360">
            <path
               id="path2354"
               d="M 30.068114,484.04813 C 30.442098,484.77248 30.801804,485.48231 31.214874,486.19537 C 45.072745,510.11746 75.805889,518.32478 99.80842,504.51335 C 123.81095,490.70192 132.04588,460.07177 118.188,436.14969 C 117.77493,435.43662 117.33798,434.77124 116.89555,434.08627 C 128.9888,457.64434 120.55858,486.81397 97.306133,500.19379 C 74.053682,513.57361 44.491995,506.26511 30.068114,484.04813 z "
               style="fill:#ffffff;fill-opacity:0.37991267;fill-rule:evenodd;stroke:none;stroke-opacity:1" />
            <path
               style="fill:#000000;fill-opacity:0.31877729;fill-rule:evenodd;stroke:none;stroke-opacity:1"
               d="M 31.289862,486.15717 C 30.847437,485.47219 30.410488,484.80681 29.997418,484.09375 C 16.139547,460.17166 24.374465,429.54151 48.376996,415.73008 C 72.379527,401.91865 103.11268,410.12596 116.97054,434.04806 C 117.38361,434.76112 117.74332,435.47095 118.1173,436.1953 C 103.69343,413.97832 74.13173,406.66983 50.879284,420.04965 C 27.626832,433.42947 19.196623,462.59909 31.289862,486.15717 z "
               id="path2356" />
          </g>
          <g
             id="g2364"
             transform="matrix(-1,1.110223e-16,-1.110223e-16,-1,551.3262,920.2434)">
            <path
               style="fill:#ffffff;fill-opacity:0.37991267;fill-rule:evenodd;stroke:none;stroke-opacity:1"
               d="M 30.068114,484.04813 C 30.442098,484.77248 30.801804,485.48231 31.214874,486.19537 C 45.072745,510.11746 75.805889,518.32478 99.80842,504.51335 C 123.81095,490.70192 132.04588,460.07177 118.188,436.14969 C 117.77493,435.43662 117.33798,434.77124 116.89555,434.08627 C 128.9888,457.64434 120.55858,486.81397 97.306133,500.19379 C 74.053682,513.57361 44.491995,506.26511 30.068114,484.04813 z "
               id="path2366" />
            <path
               id="path2368"
               d="M 31.289862,486.15717 C 30.847437,485.47219 30.410488,484.80681 29.997418,484.09375 C 16.139547,460.17166 24.374465,429.54151 48.376996,415.73008 C 72.379527,401.91865 103.11268,410.12596 116.97054,434.04806 C 117.38361,434.76112 117.74332,435.47095 118.1173,436.1953 C 103.69343,413.97832 74.13173,406.66983 50.879284,420.04965 C 27.626832,433.42947 19.196623,462.59909 31.289862,486.15717 z "
               style="fill:#000000;fill-opacity:0.31877729;fill-rule:evenodd;stroke:none;stroke-opacity:1" />
          </g>
          <g
             transform="matrix(-1,1.110223e-16,-1.110223e-16,-1,450.541,920.2434)"
             id="g2370">
            <path
               id="path2372"
               d="M 30.068114,484.04813 C 30.442098,484.77248 30.801804,485.48231 31.214874,486.19537 C 45.072745,510.11746 75.805889,518.32478 99.80842,504.51335 C 123.81095,490.70192 132.04588,460.07177 118.188,436.14969 C 117.77493,435.43662 117.33798,434.77124 116.89555,434.08627 C 128.9888,457.64434 120.55858,486.81397 97.306133,500.19379 C 74.053682,513.57361 44.491995,506.26511 30.068114,484.04813 z "
               style="fill:#ffffff;fill-opacity:0.37991267;fill-rule:evenodd;stroke:none;stroke-opacity:1" />
            <path
               style="fill:#000000;fill-opacity:0.31877729;fill-rule:evenodd;stroke:none;stroke-opacity:1"
               d="M 31.289862,486.15717 C 30.847437,485.47219 30.410488,484.80681 29.997418,484.09375 C 16.139547,460.17166 24.374465,429.54151 48.376996,415.73008 C 72.379527,401.91865 103.11268,410.12596 116.97054,434.04806 C 117.38361,434.76112 117.74332,435.47095 118.1173,436.1953 C 103.69343,413.97832 74.13173,406.66983 50.879284,420.04965 C 27.626832,433.42947 19.196623,462.59909 31.289862,486.15717 z "
               id="path2374" />
          </g>
          <g
             id="g2376"
             transform="matrix(-1,1.110223e-16,-1.110223e-16,-1,349.7558,920.2434)">
            <path
               style="fill:#ffffff;fill-opacity:0.37991267;fill-rule:evenodd;stroke:none;stroke-opacity:1"
               d="M 30.068114,484.04813 C 30.442098,484.77248 30.801804,485.48231 31.214874,486.19537 C 45.072745,510.11746 75.805889,518.32478 99.80842,504.51335 C 123.81095,490.70192 132.04588,460.07177 118.188,436.14969 C 117.77493,435.43662 117.33798,434.77124 116.89555,434.08627 C 128.9888,457.64434 120.55858,486.81397 97.306133,500.19379 C 74.053682,513.57361 44.491995,506.26511 30.068114,484.04813 z "
               id="path2378" />
            <path
               id="path2380"
               d="M 31.289862,486.15717 C 30.847437,485.47219 30.410488,484.80681 29.997418,484.09375 C 16.139547,460.17166 24.374465,429.54151 48.376996,415.73008 C 72.379527,401.91865 103.11268,410.12596 116.97054,434.04806 C 117.38361,434.76112 117.74332,435.47095 118.1173,436.1953 C 103.69343,413.97832 74.13173,406.66983 50.879284,420.04965 C 27.626832,433.42947 19.196623,462.59909 31.289862,486.15717 z "
               style="fill:#000000;fill-opacity:0.31877729;fill-rule:evenodd;stroke:none;stroke-opacity:1" />
          </g>
          <g
             transform="matrix(-1,1.110223e-16,-1.110223e-16,-1,248.9706,920.2434)"
             id="g2382">
            <path
               id="path2384"
               d="M 30.068114,484.04813 C 30.442098,484.77248 30.801804,485.48231 31.214874,486.19537 C 45.072745,510.11746 75.805889,518.32478 99.80842,504.51335 C 123.81095,490.70192 132.04588,460.07177 118.188,436.14969 C 117.77493,435.43662 117.33798,434.77124 116.89555,434.08627 C 128.9888,457.64434 120.55858,486.81397 97.306133,500.19379 C 74.053682,513.57361 44.491995,506.26511 30.068114,484.04813 z "
               style="fill:#ffffff;fill-opacity:0.37991267;fill-rule:evenodd;stroke:none;stroke-opacity:1" />
            <path
               style="fill:#000000;fill-opacity:0.31877729;fill-rule:evenodd;stroke:none;stroke-opacity:1"
               d="M 31.289862,486.15717 C 30.847437,485.47219 30.410488,484.80681 29.997418,484.09375 C 16.139547,460.17166 24.374465,429.54151 48.376996,415.73008 C 72.379527,401.91865 103.11268,410.12596 116.97054,434.04806 C 117.38361,434.76112 117.74332,435.47095 118.1173,436.1953 C 103.69343,413.97832 74.13173,406.66983 50.879284,420.04965 C 27.626832,433.42947 19.196623,462.59909 31.289862,486.15717 z "
               id="path2386" />
          </g>
          <g
             id="g2388"
             transform="matrix(-1,1.110223e-16,-1.110223e-16,-1,148.1854,920.2434)">
            <path
               style="fill:#ffffff;fill-opacity:0.37991267;fill-rule:evenodd;stroke:none;stroke-opacity:1"
               d="M 30.068114,484.04813 C 30.442098,484.77248 30.801804,485.48231 31.214874,486.19537 C 45.072745,510.11746 75.805889,518.32478 99.80842,504.51335 C 123.81095,490.70192 132.04588,460.07177 118.188,436.14969 C 117.77493,435.43662 117.33798,434.77124 116.89555,434.08627 C 128.9888,457.64434 120.55858,486.81397 97.306133,500.19379 C 74.053682,513.57361 44.491995,506.26511 30.068114,484.04813 z "
               id="path2390" />
            <path
               id="path2392"
               d="M 31.289862,486.15717 C 30.847437,485.47219 30.410488,484.80681 29.997418,484.09375 C 16.139547,460.17166 24.374465,429.54151 48.376996,415.73008 C 72.379527,401.91865 103.11268,410.12596 116.97054,434.04806 C 117.38361,434.76112 117.74332,435.47095 118.1173,436.1953 C 103.69343,413.97832 74.13173,406.66983 50.879284,420.04965 C 27.626832,433.42947 19.196623,462.59909 31.289862,486.15717 z "
               style="fill:#000000;fill-opacity:0.31877729;fill-rule:evenodd;stroke:none;stroke-opacity:1" />
          </g>
          <g
             transform="matrix(-1,1.110223e-16,-1.110223e-16,-1,752.8966,920.2434)"
             id="g2394">
            <path
               id="path2396"
               d="M 30.068114,484.04813 C 30.442098,484.77248 30.801804,485.48231 31.214874,486.19537 C 45.072745,510.11746 75.805889,518.32478 99.80842,504.51335 C 123.81095,490.70192 132.04588,460.07177 118.188,436.14969 C 117.77493,435.43662 117.33798,434.77124 116.89555,434.08627 C 128.9888,457.64434 120.55858,486.81397 97.306133,500.19379 C 74.053682,513.57361 44.491995,506.26511 30.068114,484.04813 z "
               style="fill:#ffffff;fill-opacity:0.37991267;fill-rule:evenodd;stroke:none;stroke-opacity:1" />
            <path
               style="fill:#000000;fill-opacity:0.31877729;fill-rule:evenodd;stroke:none;stroke-opacity:1"
               d="M 31.289862,486.15717 C 30.847437,485.47219 30.410488,484.80681 29.997418,484.09375 C 16.139547,460.17166 24.374465,429.54151 48.376996,415.73008 C 72.379527,401.91865 103.11268,410.12596 116.97054,434.04806 C 117.38361,434.76112 117.74332,435.47095 118.1173,436.1953 C 103.69343,413.97832 74.13173,406.66983 50.879284,420.04965 C 27.626832,433.42947 19.196623,462.59909 31.289862,486.15717 z "
               id="path2398" />
          </g>
        </g>
        <g
           id="g2423"
           transform="translate(0,302.7641)">
          <g
             id="g2425"
             transform="matrix(-1,1.110223e-16,-1.110223e-16,-1,652.1114,920.2434)">
            <path
               style="fill:#ffffff;fill-opacity:0.37991267;fill-rule:evenodd;stroke:none;stroke-opacity:1"
               d="M 30.068114,484.04813 C 30.442098,484.77248 30.801804,485.48231 31.214874,486.19537 C 45.072745,510.11746 75.805889,518.32478 99.80842,504.51335 C 123.81095,490.70192 132.04588,460.07177 118.188,436.14969 C 117.77493,435.43662 117.33798,434.77124 116.89555,434.08627 C 128.9888,457.64434 120.55858,486.81397 97.306133,500.19379 C 74.053682,513.57361 44.491995,506.26511 30.068114,484.04813 z "
               id="path2427" />
            <path
               id="path2429"
               d="M 31.289862,486.15717 C 30.847437,485.47219 30.410488,484.80681 29.997418,484.09375 C 16.139547,460.17166 24.374465,429.54151 48.376996,415.73008 C 72.379527,401.91865 103.11268,410.12596 116.97054,434.04806 C 117.38361,434.76112 117.74332,435.47095 118.1173,436.1953 C 103.69343,413.97832 74.13173,406.66983 50.879284,420.04965 C 27.626832,433.42947 19.196623,462.59909 31.289862,486.15717 z "
               style="fill:#000000;fill-opacity:0.31877729;fill-rule:evenodd;stroke:none;stroke-opacity:1" />
          </g>
          <g
             transform="matrix(-1,1.110223e-16,-1.110223e-16,-1,551.3262,920.2434)"
             id="g2431">
            <path
               id="path2433"
               d="M 30.068114,484.04813 C 30.442098,484.77248 30.801804,485.48231 31.214874,486.19537 C 45.072745,510.11746 75.805889,518.32478 99.80842,504.51335 C 123.81095,490.70192 132.04588,460.07177 118.188,436.14969 C 117.77493,435.43662 117.33798,434.77124 116.89555,434.08627 C 128.9888,457.64434 120.55858,486.81397 97.306133,500.19379 C 74.053682,513.57361 44.491995,506.26511 30.068114,484.04813 z "
               style="fill:#ffffff;fill-opacity:0.37991267;fill-rule:evenodd;stroke:none;stroke-opacity:1" />
            <path
               style="fill:#000000;fill-opacity:0.31877729;fill-rule:evenodd;stroke:none;stroke-opacity:1"
               d="M 31.289862,486.15717 C 30.847437,485.47219 30.410488,484.80681 29.997418,484.09375 C 16.139547,460.17166 24.374465,429.54151 48.376996,415.73008 C 72.379527,401.91865 103.11268,410.12596 116.97054,434.04806 C 117.38361,434.76112 117.74332,435.47095 118.1173,436.1953 C 103.69343,413.97832 74.13173,406.66983 50.879284,420.04965 C 27.626832,433.42947 19.196623,462.59909 31.289862,486.15717 z "
               id="path2435" />
          </g>
          <g
             id="g2437"
             transform="matrix(-1,1.110223e-16,-1.110223e-16,-1,450.541,920.2434)">
            <path
               style="fill:#ffffff;fill-opacity:0.37991267;fill-rule:evenodd;stroke:none;stroke-opacity:1"
               d="M 30.068114,484.04813 C 30.442098,484.77248 30.801804,485.48231 31.214874,486.19537 C 45.072745,510.11746 75.805889,518.32478 99.80842,504.51335 C 123.81095,490.70192 132.04588,460.07177 118.188,436.14969 C 117.77493,435.43662 117.33798,434.77124 116.89555,434.08627 C 128.9888,457.64434 120.55858,486.81397 97.306133,500.19379 C 74.053682,513.57361 44.491995,506.26511 30.068114,484.04813 z "
               id="path2439" />
            <path
               id="path2441"
               d="M 31.289862,486.15717 C 30.847437,485.47219 30.410488,484.80681 29.997418,484.09375 C 16.139547,460.17166 24.374465,429.54151 48.376996,415.73008 C 72.379527,401.91865 103.11268,410.12596 116.97054,434.04806 C 117.38361,434.76112 117.74332,435.47095 118.1173,436.1953 C 103.69343,413.97832 74.13173,406.66983 50.879284,420.04965 C 27.626832,433.42947 19.196623,462.59909 31.289862,486.15717 z "
               style="fill:#000000;fill-opacity:0.31877729;fill-rule:evenodd;stroke:none;stroke-opacity:1" />
          </g>
          <g
             transform="matrix(-1,1.110223e-16,-1.110223e-16,-1,349.7558,920.2434)"
             id="g2443">
            <path
               id="path2445"
               d="M 30.068114,484.04813 C 30.442098,484.77248 30.801804,485.48231 31.214874,486.19537 C 45.072745,510.11746 75.805889,518.32478 99.80842,504.51335 C 123.81095,490.70192 132.04588,460.07177 118.188,436.14969 C 117.77493,435.43662 117.33798,434.77124 116.89555,434.08627 C 128.9888,457.64434 120.55858,486.81397 97.306133,500.19379 C 74.053682,513.57361 44.491995,506.26511 30.068114,484.04813 z "
               style="fill:#ffffff;fill-opacity:0.37991267;fill-rule:evenodd;stroke:none;stroke-opacity:1" />
            <path
               style="fill:#000000;fill-opacity:0.31877729;fill-rule:evenodd;stroke:none;stroke-opacity:1"
               d="M 31.289862,486.15717 C 30.847437,485.47219 30.410488,484.80681 29.997418,484.09375 C 16.139547,460.17166 24.374465,429.54151 48.376996,415.73008 C 72.379527,401.91865 103.11268,410.12596 116.97054,434.04806 C 117.38361,434.76112 117.74332,435.47095 118.1173,436.1953 C 103.69343,413.97832 74.13173,406.66983 50.879284,420.04965 C 27.626832,433.42947 19.196623,462.59909 31.289862,486.15717 z "
               id="path2447" />
          </g>
          <g
             id="g2449"
             transform="matrix(-1,1.110223e-16,-1.110223e-16,-1,248.9706,920.2434)">
            <path
               style="fill:#ffffff;fill-opacity:0.37991267;fill-rule:evenodd;stroke:none;stroke-opacity:1"
               d="M 30.068114,484.04813 C 30.442098,484.77248 30.801804,485.48231 31.214874,486.19537 C 45.072745,510.11746 75.805889,518.32478 99.80842,504.51335 C 123.81095,490.70192 132.04588,460.07177 118.188,436.14969 C 117.77493,435.43662 117.33798,434.77124 116.89555,434.08627 C 128.9888,457.64434 120.55858,486.81397 97.306133,500.19379 C 74.053682,513.57361 44.491995,506.26511 30.068114,484.04813 z "
               id="path2451" />
            <path
               id="path2453"
               d="M 31.289862,486.15717 C 30.847437,485.47219 30.410488,484.80681 29.997418,484.09375 C 16.139547,460.17166 24.374465,429.54151 48.376996,415.73008 C 72.379527,401.91865 103.11268,410.12596 116.97054,434.04806 C 117.38361,434.76112 117.74332,435.47095 118.1173,436.1953 C 103.69343,413.97832 74.13173,406.66983 50.879284,420.04965 C 27.626832,433.42947 19.196623,462.59909 31.289862,486.15717 z "
               style="fill:#000000;fill-opacity:0.31877729;fill-rule:evenodd;stroke:none;stroke-opacity:1" />
          </g>
          <g
             transform="matrix(-1,1.110223e-16,-1.110223e-16,-1,148.1854,920.2434)"
             id="g2455">
            <path
               id="path2457"
               d="M 30.068114,484.04813 C 30.442098,484.77248 30.801804,485.48231 31.214874,486.19537 C 45.072745,510.11746 75.805889,518.32478 99.80842,504.51335 C 123.81095,490.70192 132.04588,460.07177 118.188,436.14969 C 117.77493,435.43662 117.33798,434.77124 116.89555,434.08627 C 128.9888,457.64434 120.55858,486.81397 97.306133,500.19379 C 74.053682,513.57361 44.491995,506.26511 30.068114,484.04813 z "
               style="fill:#ffffff;fill-opacity:0.37991267;fill-rule:evenodd;stroke:none;stroke-opacity:1" />
            <path
               style="fill:#000000;fill-opacity:0.31877729;fill-rule:evenodd;stroke:none;stroke-opacity:1"
               d="M 31.289862,486.15717 C 30.847437,485.47219 30.410488,484.80681 29.997418,484.09375 C 16.139547,460.17166 24.374465,429.54151 48.376996,415.73008 C 72.379527,401.91865 103.11268,410.12596 116.97054,434.04806 C 117.38361,434.76112 117.74332,435.47095 118.1173,436.1953 C 103.69343,413.97832 74.13173,406.66983 50.879284,420.04965 C 27.626832,433.42947 19.196623,462.59909 31.289862,486.15717 z "
               id="path2459" />
          </g>
          <g
             id="g2461"
             transform="matrix(-1,1.110223e-16,-1.110223e-16,-1,752.8966,920.2434)">
            <path
               style="fill:#ffffff;fill-opacity:0.37991267;fill-rule:evenodd;stroke:none;stroke-opacity:1"
               d="M 30.068114,484.04813 C 30.442098,484.77248 30.801804,485.48231 31.214874,486.19537 C 45.072745,510.11746 75.805889,518.32478 99.80842,504.51335 C 123.81095,490.70192 132.04588,460.07177 118.188,436.14969 C 117.77493,435.43662 117.33798,434.77124 116.89555,434.08627 C 128.9888,457.64434 120.55858,486.81397 97.306133,500.19379 C 74.053682,513.57361 44.491995,506.26511 30.068114,484.04813 z "
               id="path2463" />
            <path
               id="path2465"
               d="M 31.289862,486.15717 C 30.847437,485.47219 30.410488,484.80681 29.997418,484.09375 C 16.139547,460.17166 24.374465,429.54151 48.376996,415.73008 C 72.379527,401.91865 103.11268,410.12596 116.97054,434.04806 C 117.38361,434.76112 117.74332,435.47095 118.1173,436.1953 C 103.69343,413.97832 74.13173,406.66983 50.879284,420.04965 C 27.626832,433.42947 19.196623,462.59909 31.289862,486.15717 z "
               style="fill:#000000;fill-opacity:0.31877729;fill-rule:evenodd;stroke:none;stroke-opacity:1" />
          </g>
        </g>
        <g
           id="g2467"
           transform="translate(0,201.8427)">
          <g
             transform="matrix(-1,1.110223e-16,-1.110223e-16,-1,652.1114,920.2434)"
             id="g2469">
            <path
               id="path2471"
               d="M 30.068114,484.04813 C 30.442098,484.77248 30.801804,485.48231 31.214874,486.19537 C 45.072745,510.11746 75.805889,518.32478 99.80842,504.51335 C 123.81095,490.70192 132.04588,460.07177 118.188,436.14969 C 117.77493,435.43662 117.33798,434.77124 116.89555,434.08627 C 128.9888,457.64434 120.55858,486.81397 97.306133,500.19379 C 74.053682,513.57361 44.491995,506.26511 30.068114,484.04813 z "
               style="fill:#ffffff;fill-opacity:0.37991267;fill-rule:evenodd;stroke:none;stroke-opacity:1" />
            <path
               style="fill:#000000;fill-opacity:0.31877729;fill-rule:evenodd;stroke:none;stroke-opacity:1"
               d="M 31.289862,486.15717 C 30.847437,485.47219 30.410488,484.80681 29.997418,484.09375 C 16.139547,460.17166 24.374465,429.54151 48.376996,415.73008 C 72.379527,401.91865 103.11268,410.12596 116.97054,434.04806 C 117.38361,434.76112 117.74332,435.47095 118.1173,436.1953 C 103.69343,413.97832 74.13173,406.66983 50.879284,420.04965 C 27.626832,433.42947 19.196623,462.59909 31.289862,486.15717 z "
               id="path2473" />
          </g>
          <g
             id="g2475"
             transform="matrix(-1,1.110223e-16,-1.110223e-16,-1,551.3262,920.2434)">
            <path
               style="fill:#ffffff;fill-opacity:0.37991267;fill-rule:evenodd;stroke:none;stroke-opacity:1"
               d="M 30.068114,484.04813 C 30.442098,484.77248 30.801804,485.48231 31.214874,486.19537 C 45.072745,510.11746 75.805889,518.32478 99.80842,504.51335 C 123.81095,490.70192 132.04588,460.07177 118.188,436.14969 C 117.77493,435.43662 117.33798,434.77124 116.89555,434.08627 C 128.9888,457.64434 120.55858,486.81397 97.306133,500.19379 C 74.053682,513.57361 44.491995,506.26511 30.068114,484.04813 z "
               id="path2477" />
            <path
               id="path2479"
               d="M 31.289862,486.15717 C 30.847437,485.47219 30.410488,484.80681 29.997418,484.09375 C 16.139547,460.17166 24.374465,429.54151 48.376996,415.73008 C 72.379527,401.91865 103.11268,410.12596 116.97054,434.04806 C 117.38361,434.76112 117.74332,435.47095 118.1173,436.1953 C 103.69343,413.97832 74.13173,406.66983 50.879284,420.04965 C 27.626832,433.42947 19.196623,462.59909 31.289862,486.15717 z "
               style="fill:#000000;fill-opacity:0.31877729;fill-rule:evenodd;stroke:none;stroke-opacity:1" />
          </g>
          <g
             transform="matrix(-1,1.110223e-16,-1.110223e-16,-1,450.541,920.2434)"
             id="g2481">
            <path
               id="path2483"
               d="M 30.068114,484.04813 C 30.442098,484.77248 30.801804,485.48231 31.214874,486.19537 C 45.072745,510.11746 75.805889,518.32478 99.80842,504.51335 C 123.81095,490.70192 132.04588,460.07177 118.188,436.14969 C 117.77493,435.43662 117.33798,434.77124 116.89555,434.08627 C 128.9888,457.64434 120.55858,486.81397 97.306133,500.19379 C 74.053682,513.57361 44.491995,506.26511 30.068114,484.04813 z "
               style="fill:#ffffff;fill-opacity:0.37991267;fill-rule:evenodd;stroke:none;stroke-opacity:1" />
            <path
               style="fill:#000000;fill-opacity:0.31877729;fill-rule:evenodd;stroke:none;stroke-opacity:1"
               d="M 31.289862,486.15717 C 30.847437,485.47219 30.410488,484.80681 29.997418,484.09375 C 16.139547,460.17166 24.374465,429.54151 48.376996,415.73008 C 72.379527,401.91865 103.11268,410.12596 116.97054,434.04806 C 117.38361,434.76112 117.74332,435.47095 118.1173,436.1953 C 103.69343,413.97832 74.13173,406.66983 50.879284,420.04965 C 27.626832,433.42947 19.196623,462.59909 31.289862,486.15717 z "
               id="path2485" />
          </g>
          <g
             id="g2487"
             transform="matrix(-1,1.110223e-16,-1.110223e-16,-1,349.7558,920.2434)">
            <path
               style="fill:#ffffff;fill-opacity:0.37991267;fill-rule:evenodd;stroke:none;stroke-opacity:1"
               d="M 30.068114,484.04813 C 30.442098,484.77248 30.801804,485.48231 31.214874,486.19537 C 45.072745,510.11746 75.805889,518.32478 99.80842,504.51335 C 123.81095,490.70192 132.04588,460.07177 118.188,436.14969 C 117.77493,435.43662 117.33798,434.77124 116.89555,434.08627 C 128.9888,457.64434 120.55858,486.81397 97.306133,500.19379 C 74.053682,513.57361 44.491995,506.26511 30.068114,484.04813 z "
               id="path2489" />
            <path
               id="path2491"
               d="M 31.289862,486.15717 C 30.847437,485.47219 30.410488,484.80681 29.997418,484.09375 C 16.139547,460.17166 24.374465,429.54151 48.376996,415.73008 C 72.379527,401.91865 103.11268,410.12596 116.97054,434.04806 C 117.38361,434.76112 117.74332,435.47095 118.1173,436.1953 C 103.69343,413.97832 74.13173,406.66983 50.879284,420.04965 C 27.626832,433.42947 19.196623,462.59909 31.289862,486.15717 z "
               style="fill:#000000;fill-opacity:0.31877729;fill-rule:evenodd;stroke:none;stroke-opacity:1" />
          </g>
          <g
             transform="matrix(-1,1.110223e-16,-1.110223e-16,-1,248.9706,920.2434)"
             id="g2493">
            <path
               id="path2495"
               d="M 30.068114,484.04813 C 30.442098,484.77248 30.801804,485.48231 31.214874,486.19537 C 45.072745,510.11746 75.805889,518.32478 99.80842,504.51335 C 123.81095,490.70192 132.04588,460.07177 118.188,436.14969 C 117.77493,435.43662 117.33798,434.77124 116.89555,434.08627 C 128.9888,457.64434 120.55858,486.81397 97.306133,500.19379 C 74.053682,513.57361 44.491995,506.26511 30.068114,484.04813 z "
               style="fill:#ffffff;fill-opacity:0.37991267;fill-rule:evenodd;stroke:none;stroke-opacity:1" />
            <path
               style="fill:#000000;fill-opacity:0.31877729;fill-rule:evenodd;stroke:none;stroke-opacity:1"
               d="M 31.289862,486.15717 C 30.847437,485.47219 30.410488,484.80681 29.997418,484.09375 C 16.139547,460.17166 24.374465,429.54151 48.376996,415.73008 C 72.379527,401.91865 103.11268,410.12596 116.97054,434.04806 C 117.38361,434.76112 117.74332,435.47095 118.1173,436.1953 C 103.69343,413.97832 74.13173,406.66983 50.879284,420.04965 C 27.626832,433.42947 19.196623,462.59909 31.289862,486.15717 z "
               id="path2497" />
          </g>
          <g
             id="g2499"
             transform="matrix(-1,1.110223e-16,-1.110223e-16,-1,148.1854,920.2434)">
            <path
               style="fill:#ffffff;fill-opacity:0.37991267;fill-rule:evenodd;stroke:none;stroke-opacity:1"
               d="M 30.068114,484.04813 C 30.442098,484.77248 30.801804,485.48231 31.214874,486.19537 C 45.072745,510.11746 75.805889,518.32478 99.80842,504.51335 C 123.81095,490.70192 132.04588,460.07177 118.188,436.14969 C 117.77493,435.43662 117.33798,434.77124 116.89555,434.08627 C 128.9888,457.64434 120.55858,486.81397 97.306133,500.19379 C 74.053682,513.57361 44.491995,506.26511 30.068114,484.04813 z "
               id="path2501" />
            <path
               id="path2503"
               d="M 31.289862,486.15717 C 30.847437,485.47219 30.410488,484.80681 29.997418,484.09375 C 16.139547,460.17166 24.374465,429.54151 48.376996,415.73008 C 72.379527,401.91865 103.11268,410.12596 116.97054,434.04806 C 117.38361,434.76112 117.74332,435.47095 118.1173,436.1953 C 103.69343,413.97832 74.13173,406.66983 50.879284,420.04965 C 27.626832,433.42947 19.196623,462.59909 31.289862,486.15717 z "
               style="fill:#000000;fill-opacity:0.31877729;fill-rule:evenodd;stroke:none;stroke-opacity:1" />
          </g>
          <g
             transform="matrix(-1,1.110223e-16,-1.110223e-16,-1,752.8966,920.2434)"
             id="g2505">
            <path
               id="path2507"
               d="M 30.068114,484.04813 C 30.442098,484.77248 30.801804,485.48231 31.214874,486.19537 C 45.072745,510.11746 75.805889,518.32478 99.80842,504.51335 C 123.81095,490.70192 132.04588,460.07177 118.188,436.14969 C 117.77493,435.43662 117.33798,434.77124 116.89555,434.08627 C 128.9888,457.64434 120.55858,486.81397 97.306133,500.19379 C 74.053682,513.57361 44.491995,506.26511 30.068114,484.04813 z "
               style="fill:#ffffff;fill-opacity:0.37991267;fill-rule:evenodd;stroke:none;stroke-opacity:1" />
            <path
               style="fill:#000000;fill-opacity:0.31877729;fill-rule:evenodd;stroke:none;stroke-opacity:1"
               d="M 31.289862,486.15717 C 30.847437,485.47219 30.410488,484.80681 29.997418,484.09375 C 16.139547,460.17166 24.374465,429.54151 48.376996,415.73008 C 72.379527,401.91865 103.11268,410.12596 116.97054,434.04806 C 117.38361,434.76112 117.74332,435.47095 118.1173,436.1953 C 103.69343,413.97832 74.13173,406.66983 50.879284,420.04965 C 27.626832,433.42947 19.196623,462.59909 31.289862,486.15717 z "
               id="path2509" />
          </g>
        </g>
        <g
           id="g2511"
           transform="translate(0,100.9214)">
          <g
             id="g2513"
             transform="matrix(-1,1.110223e-16,-1.110223e-16,-1,652.1114,920.2434)">
            <path
               style="fill:#ffffff;fill-opacity:0.37991267;fill-rule:evenodd;stroke:none;stroke-opacity:1"
               d="M 30.068114,484.04813 C 30.442098,484.77248 30.801804,485.48231 31.214874,486.19537 C 45.072745,510.11746 75.805889,518.32478 99.80842,504.51335 C 123.81095,490.70192 132.04588,460.07177 118.188,436.14969 C 117.77493,435.43662 117.33798,434.77124 116.89555,434.08627 C 128.9888,457.64434 120.55858,486.81397 97.306133,500.19379 C 74.053682,513.57361 44.491995,506.26511 30.068114,484.04813 z "
               id="path2515" />
            <path
               id="path2517"
               d="M 31.289862,486.15717 C 30.847437,485.47219 30.410488,484.80681 29.997418,484.09375 C 16.139547,460.17166 24.374465,429.54151 48.376996,415.73008 C 72.379527,401.91865 103.11268,410.12596 116.97054,434.04806 C 117.38361,434.76112 117.74332,435.47095 118.1173,436.1953 C 103.69343,413.97832 74.13173,406.66983 50.879284,420.04965 C 27.626832,433.42947 19.196623,462.59909 31.289862,486.15717 z "
               style="fill:#000000;fill-opacity:0.31877729;fill-rule:evenodd;stroke:none;stroke-opacity:1" />
          </g>
          <g
             transform="matrix(-1,1.110223e-16,-1.110223e-16,-1,551.3262,920.2434)"
             id="g2519">
            <path
               id="path2521"
               d="M 30.068114,484.04813 C 30.442098,484.77248 30.801804,485.48231 31.214874,486.19537 C 45.072745,510.11746 75.805889,518.32478 99.80842,504.51335 C 123.81095,490.70192 132.04588,460.07177 118.188,436.14969 C 117.77493,435.43662 117.33798,434.77124 116.89555,434.08627 C 128.9888,457.64434 120.55858,486.81397 97.306133,500.19379 C 74.053682,513.57361 44.491995,506.26511 30.068114,484.04813 z "
               style="fill:#ffffff;fill-opacity:0.37991267;fill-rule:evenodd;stroke:none;stroke-opacity:1" />
            <path
               style="fill:#000000;fill-opacity:0.31877729;fill-rule:evenodd;stroke:none;stroke-opacity:1"
               d="M 31.289862,486.15717 C 30.847437,485.47219 30.410488,484.80681 29.997418,484.09375 C 16.139547,460.17166 24.374465,429.54151 48.376996,415.73008 C 72.379527,401.91865 103.11268,410.12596 116.97054,434.04806 C 117.38361,434.76112 117.74332,435.47095 118.1173,436.1953 C 103.69343,413.97832 74.13173,406.66983 50.879284,420.04965 C 27.626832,433.42947 19.196623,462.59909 31.289862,486.15717 z "
               id="path2523" />
          </g>
          <g
             id="g2525"
             transform="matrix(-1,1.110223e-16,-1.110223e-16,-1,450.541,920.2434)">
            <path
               style="fill:#ffffff;fill-opacity:0.37991267;fill-rule:evenodd;stroke:none;stroke-opacity:1"
               d="M 30.068114,484.04813 C 30.442098,484.77248 30.801804,485.48231 31.214874,486.19537 C 45.072745,510.11746 75.805889,518.32478 99.80842,504.51335 C 123.81095,490.70192 132.04588,460.07177 118.188,436.14969 C 117.77493,435.43662 117.33798,434.77124 116.89555,434.08627 C 128.9888,457.64434 120.55858,486.81397 97.306133,500.19379 C 74.053682,513.57361 44.491995,506.26511 30.068114,484.04813 z "
               id="path2527" />
            <path
               id="path2529"
               d="M 31.289862,486.15717 C 30.847437,485.47219 30.410488,484.80681 29.997418,484.09375 C 16.139547,460.17166 24.374465,429.54151 48.376996,415.73008 C 72.379527,401.91865 103.11268,410.12596 116.97054,434.04806 C 117.38361,434.76112 117.74332,435.47095 118.1173,436.1953 C 103.69343,413.97832 74.13173,406.66983 50.879284,420.04965 C 27.626832,433.42947 19.196623,462.59909 31.289862,486.15717 z "
               style="fill:#000000;fill-opacity:0.31877729;fill-rule:evenodd;stroke:none;stroke-opacity:1" />
          </g>
          <g
             transform="matrix(-1,1.110223e-16,-1.110223e-16,-1,349.7558,920.2434)"
             id="g2531">
            <path
               id="path2533"
               d="M 30.068114,484.04813 C 30.442098,484.77248 30.801804,485.48231 31.214874,486.19537 C 45.072745,510.11746 75.805889,518.32478 99.80842,504.51335 C 123.81095,490.70192 132.04588,460.07177 118.188,436.14969 C 117.77493,435.43662 117.33798,434.77124 116.89555,434.08627 C 128.9888,457.64434 120.55858,486.81397 97.306133,500.19379 C 74.053682,513.57361 44.491995,506.26511 30.068114,484.04813 z "
               style="fill:#ffffff;fill-opacity:0.37991267;fill-rule:evenodd;stroke:none;stroke-opacity:1" />
            <path
               style="fill:#000000;fill-opacity:0.31877729;fill-rule:evenodd;stroke:none;stroke-opacity:1"
               d="M 31.289862,486.15717 C 30.847437,485.47219 30.410488,484.80681 29.997418,484.09375 C 16.139547,460.17166 24.374465,429.54151 48.376996,415.73008 C 72.379527,401.91865 103.11268,410.12596 116.97054,434.04806 C 117.38361,434.76112 117.74332,435.47095 118.1173,436.1953 C 103.69343,413.97832 74.13173,406.66983 50.879284,420.04965 C 27.626832,433.42947 19.196623,462.59909 31.289862,486.15717 z "
               id="path2535" />
          </g>
          <g
             id="g2537"
             transform="matrix(-1,1.110223e-16,-1.110223e-16,-1,248.9706,920.2434)">
            <path
               style="fill:#ffffff;fill-opacity:0.37991267;fill-rule:evenodd;stroke:none;stroke-opacity:1"
               d="M 30.068114,484.04813 C 30.442098,484.77248 30.801804,485.48231 31.214874,486.19537 C 45.072745,510.11746 75.805889,518.32478 99.80842,504.51335 C 123.81095,490.70192 132.04588,460.07177 118.188,436.14969 C 117.77493,435.43662 117.33798,434.77124 116.89555,434.08627 C 128.9888,457.64434 120.55858,486.81397 97.306133,500.19379 C 74.053682,513.57361 44.491995,506.26511 30.068114,484.04813 z "
               id="path2539" />
            <path
               id="path2541"
               d="M 31.289862,486.15717 C 30.847437,485.47219 30.410488,484.80681 29.997418,484.09375 C 16.139547,460.17166 24.374465,429.54151 48.376996,415.73008 C 72.379527,401.91865 103.11268,410.12596 116.97054,434.04806 C 117.38361,434.76112 117.74332,435.47095 118.1173,436.1953 C 103.69343,413.97832 74.13173,406.66983 50.879284,420.04965 C 27.626832,433.42947 19.196623,462.59909 31.289862,486.15717 z "
               style="fill:#000000;fill-opacity:0.31877729;fill-rule:evenodd;stroke:none;stroke-opacity:1" />
          </g>
          <g
             transform="matrix(-1,1.110223e-16,-1.110223e-16,-1,148.1854,920.2434)"
             id="g2543">
            <path
               id="path2545"
               d="M 30.068114,484.04813 C 30.442098,484.77248 30.801804,485.48231 31.214874,486.19537 C 45.072745,510.11746 75.805889,518.32478 99.80842,504.51335 C 123.81095,490.70192 132.04588,460.07177 118.188,436.14969 C 117.77493,435.43662 117.33798,434.77124 116.89555,434.08627 C 128.9888,457.64434 120.55858,486.81397 97.306133,500.19379 C 74.053682,513.57361 44.491995,506.26511 30.068114,484.04813 z "
               style="fill:#ffffff;fill-opacity:0.37991267;fill-rule:evenodd;stroke:none;stroke-opacity:1" />
            <path
               style="fill:#000000;fill-opacity:0.31877729;fill-rule:evenodd;stroke:none;stroke-opacity:1"
               d="M 31.289862,486.15717 C 30.847437,485.47219 30.410488,484.80681 29.997418,484.09375 C 16.139547,460.17166 24.374465,429.54151 48.376996,415.73008 C 72.379527,401.91865 103.11268,410.12596 116.97054,434.04806 C 117.38361,434.76112 117.74332,435.47095 118.1173,436.1953 C 103.69343,413.97832 74.13173,406.66983 50.879284,420.04965 C 27.626832,433.42947 19.196623,462.59909 31.289862,486.15717 z "
               id="path2547" />
          </g>
          <g
             id="g2549"
             transform="matrix(-1,1.110223e-16,-1.110223e-16,-1,752.8966,920.2434)">
            <path
               style="fill:#ffffff;fill-opacity:0.37991267;fill-rule:evenodd;stroke:none;stroke-opacity:1"
               d="M 30.068114,484.04813 C 30.442098,484.77248 30.801804,485.48231 31.214874,486.19537 C 45.072745,510.11746 75.805889,518.32478 99.80842,504.51335 C 123.81095,490.70192 132.04588,460.07177 118.188,436.14969 C 117.77493,435.43662 117.33798,434.77124 116.89555,434.08627 C 128.9888,457.64434 120.55858,486.81397 97.306133,500.19379 C 74.053682,513.57361 44.491995,506.26511 30.068114,484.04813 z "
               id="path2551" />
            <path
               id="path2553"
               d="M 31.289862,486.15717 C 30.847437,485.47219 30.410488,484.80681 29.997418,484.09375 C 16.139547,460.17166 24.374465,429.54151 48.376996,415.73008 C 72.379527,401.91865 103.11268,410.12596 116.97054,434.04806 C 117.38361,434.76112 117.74332,435.47095 118.1173,436.1953 C 103.69343,413.97832 74.13173,406.66983 50.879284,420.04965 C 27.626832,433.42947 19.196623,462.59909 31.289862,486.15717 z "
               style="fill:#000000;fill-opacity:0.31877729;fill-rule:evenodd;stroke:none;stroke-opacity:1" />
          </g>
        </g>
        <g
           id="g2555">
          <g
             transform="matrix(-1,1.110223e-16,-1.110223e-16,-1,652.1114,920.2434)"
             id="g2557">
            <path
               id="path2559"
               d="M 30.068114,484.04813 C 30.442098,484.77248 30.801804,485.48231 31.214874,486.19537 C 45.072745,510.11746 75.805889,518.32478 99.80842,504.51335 C 123.81095,490.70192 132.04588,460.07177 118.188,436.14969 C 117.77493,435.43662 117.33798,434.77124 116.89555,434.08627 C 128.9888,457.64434 120.55858,486.81397 97.306133,500.19379 C 74.053682,513.57361 44.491995,506.26511 30.068114,484.04813 z "
               style="fill:#ffffff;fill-opacity:0.37991267;fill-rule:evenodd;stroke:none;stroke-opacity:1" />
            <path
               style="fill:#000000;fill-opacity:0.31877729;fill-rule:evenodd;stroke:none;stroke-opacity:1"
               d="M 31.289862,486.15717 C 30.847437,485.47219 30.410488,484.80681 29.997418,484.09375 C 16.139547,460.17166 24.374465,429.54151 48.376996,415.73008 C 72.379527,401.91865 103.11268,410.12596 116.97054,434.04806 C 117.38361,434.76112 117.74332,435.47095 118.1173,436.1953 C 103.69343,413.97832 74.13173,406.66983 50.879284,420.04965 C 27.626832,433.42947 19.196623,462.59909 31.289862,486.15717 z "
               id="path2561" />
          </g>
          <g
             id="g2563"
             transform="matrix(-1,1.110223e-16,-1.110223e-16,-1,551.3262,920.2434)">
            <path
               style="fill:#ffffff;fill-opacity:0.37991267;fill-rule:evenodd;stroke:none;stroke-opacity:1"
               d="M 30.068114,484.04813 C 30.442098,484.77248 30.801804,485.48231 31.214874,486.19537 C 45.072745,510.11746 75.805889,518.32478 99.80842,504.51335 C 123.81095,490.70192 132.04588,460.07177 118.188,436.14969 C 117.77493,435.43662 117.33798,434.77124 116.89555,434.08627 C 128.9888,457.64434 120.55858,486.81397 97.306133,500.19379 C 74.053682,513.57361 44.491995,506.26511 30.068114,484.04813 z "
               id="path2565" />
            <path
               id="path2567"
               d="M 31.289862,486.15717 C 30.847437,485.47219 30.410488,484.80681 29.997418,484.09375 C 16.139547,460.17166 24.374465,429.54151 48.376996,415.73008 C 72.379527,401.91865 103.11268,410.12596 116.97054,434.04806 C 117.38361,434.76112 117.74332,435.47095 118.1173,436.1953 C 103.69343,413.97832 74.13173,406.66983 50.879284,420.04965 C 27.626832,433.42947 19.196623,462.59909 31.289862,486.15717 z "
               style="fill:#000000;fill-opacity:0.31877729;fill-rule:evenodd;stroke:none;stroke-opacity:1" />
          </g>
          <g
             transform="matrix(-1,1.110223e-16,-1.110223e-16,-1,450.541,920.2434)"
             id="g2569">
            <path
               id="path2571"
               d="M 30.068114,484.04813 C 30.442098,484.77248 30.801804,485.48231 31.214874,486.19537 C 45.072745,510.11746 75.805889,518.32478 99.80842,504.51335 C 123.81095,490.70192 132.04588,460.07177 118.188,436.14969 C 117.77493,435.43662 117.33798,434.77124 116.89555,434.08627 C 128.9888,457.64434 120.55858,486.81397 97.306133,500.19379 C 74.053682,513.57361 44.491995,506.26511 30.068114,484.04813 z "
               style="fill:#ffffff;fill-opacity:0.37991267;fill-rule:evenodd;stroke:none;stroke-opacity:1" />
            <path
               style="fill:#000000;fill-opacity:0.31877729;fill-rule:evenodd;stroke:none;stroke-opacity:1"
               d="M 31.289862,486.15717 C 30.847437,485.47219 30.410488,484.80681 29.997418,484.09375 C 16.139547,460.17166 24.374465,429.54151 48.376996,415.73008 C 72.379527,401.91865 103.11268,410.12596 116.97054,434.04806 C 117.38361,434.76112 117.74332,435.47095 118.1173,436.1953 C 103.69343,413.97832 74.13173,406.66983 50.879284,420.04965 C 27.626832,433.42947 19.196623,462.59909 31.289862,486.15717 z "
               id="path2573" />
          </g>
          <g
             id="g2575"
             transform="matrix(-1,1.110223e-16,-1.110223e-16,-1,349.7558,920.2434)">
            <path
               style="fill:#ffffff;fill-opacity:0.37991267;fill-rule:evenodd;stroke:none;stroke-opacity:1"
               d="M 30.068114,484.04813 C 30.442098,484.77248 30.801804,485.48231 31.214874,486.19537 C 45.072745,510.11746 75.805889,518.32478 99.80842,504.51335 C 123.81095,490.70192 132.04588,460.07177 118.188,436.14969 C 117.77493,435.43662 117.33798,434.77124 116.89555,434.08627 C 128.9888,457.64434 120.55858,486.81397 97.306133,500.19379 C 74.053682,513.57361 44.491995,506.26511 30.068114,484.04813 z "
               id="path2577" />
            <path
               id="path2579"
               d="M 31.289862,486.15717 C 30.847437,485.47219 30.410488,484.80681 29.997418,484.09375 C 16.139547,460.17166 24.374465,429.54151 48.376996,415.73008 C 72.379527,401.91865 103.11268,410.12596 116.97054,434.04806 C 117.38361,434.76112 117.74332,435.47095 118.1173,436.1953 C 103.69343,413.97832 74.13173,406.66983 50.879284,420.04965 C 27.626832,433.42947 19.196623,462.59909 31.289862,486.15717 z "
               style="fill:#000000;fill-opacity:0.31877729;fill-rule:evenodd;stroke:none;stroke-opacity:1" />
          </g>
          <g
             transform="matrix(-1,1.110223e-16,-1.110223e-16,-1,248.9706,920.2434)"
             id="g2581">
            <path
               id="path2583"
               d="M 30.068114,484.04813 C 30.442098,484.77248 30.801804,485.48231 31.214874,486.19537 C 45.072745,510.11746 75.805889,518.32478 99.80842,504.51335 C 123.81095,490.70192 132.04588,460.07177 118.188,436.14969 C 117.77493,435.43662 117.33798,434.77124 116.89555,434.08627 C 128.9888,457.64434 120.55858,486.81397 97.306133,500.19379 C 74.053682,513.57361 44.491995,506.26511 30.068114,484.04813 z "
               style="fill:#ffffff;fill-opacity:0.37991267;fill-rule:evenodd;stroke:none;stroke-opacity:1" />
            <path
               style="fill:#000000;fill-opacity:0.31877729;fill-rule:evenodd;stroke:none;stroke-opacity:1"
               d="M 31.289862,486.15717 C 30.847437,485.47219 30.410488,484.80681 29.997418,484.09375 C 16.139547,460.17166 24.374465,429.54151 48.376996,415.73008 C 72.379527,401.91865 103.11268,410.12596 116.97054,434.04806 C 117.38361,434.76112 117.74332,435.47095 118.1173,436.1953 C 103.69343,413.97832 74.13173,406.66983 50.879284,420.04965 C 27.626832,433.42947 19.196623,462.59909 31.289862,486.15717 z "
               id="path2585" />
          </g>
          <g
             id="g2587"
             transform="matrix(-1,1.110223e-16,-1.110223e-16,-1,148.1854,920.2434)">
            <path
               style="fill:#ffffff;fill-opacity:0.37991267;fill-rule:evenodd;stroke:none;stroke-opacity:1"
               d="M 30.068114,484.04813 C 30.442098,484.77248 30.801804,485.48231 31.214874,486.19537 C 45.072745,510.11746 75.805889,518.32478 99.80842,504.51335 C 123.81095,490.70192 132.04588,460.07177 118.188,436.14969 C 117.77493,435.43662 117.33798,434.77124 116.89555,434.08627 C 128.9888,457.64434 120.55858,486.81397 97.306133,500.19379 C 74.053682,513.57361 44.491995,506.26511 30.068114,484.04813 z "
               id="path2589" />
            <path
               id="path2591"
               d="M 31.289862,486.15717 C 30.847437,485.47219 30.410488,484.80681 29.997418,484.09375 C 16.139547,460.17166 24.374465,429.54151 48.376996,415.73008 C 72.379527,401.91865 103.11268,410.12596 116.97054,434.04806 C 117.38361,434.76112 117.74332,435.47095 118.1173,436.1953 C 103.69343,413.97832 74.13173,406.66983 50.879284,420.04965 C 27.626832,433.42947 19.196623,462.59909 31.289862,486.15717 z "
               style="fill:#000000;fill-opacity:0.31877729;fill-rule:evenodd;stroke:none;stroke-opacity:1" />
          </g>
          <g
             transform="matrix(-1,1.110223e-16,-1.110223e-16,-1,752.8966,920.2434)"
             id="g2593">
            <path
               id="path2595"
               d="M 30.068114,484.04813 C 30.442098,484.77248 30.801804,485.48231 31.214874,486.19537 C 45.072745,510.11746 75.805889,518.32478 99.80842,504.51335 C 123.81095,490.70192 132.04588,460.07177 118.188,436.14969 C 117.77493,435.43662 117.33798,434.77124 116.89555,434.08627 C 128.9888,457.64434 120.55858,486.81397 97.306133,500.19379 C 74.053682,513.57361 44.491995,506.26511 30.068114,484.04813 z "
               style="fill:#ffffff;fill-opacity:0.37991267;fill-rule:evenodd;stroke:none;stroke-opacity:1" />
            <path
               style="fill:#000000;fill-opacity:0.31877729;fill-rule:evenodd;stroke:none;stroke-opacity:1"
               d="M 31.289862,486.15717 C 30.847437,485.47219 30.410488,484.80681 29.997418,484.09375 C 16.139547,460.17166 24.374465,429.54151 48.376996,415.73008 C 72.379527,401.91865 103.11268,410.12596 116.97054,434.04806 C 117.38361,434.76112 117.74332,435.47095 118.1173,436.1953 C 103.69343,413.97832 74.13173,406.66983 50.879284,420.04965 C 27.626832,433.42947 19.196623,462.59909 31.289862,486.15717 z "
               id="path2597" />
          </g>
        </g>
        <g
           id="g2599"
           transform="translate(0,504.6068)">
          <g
             id="g2601"
             transform="matrix(-1,1.110223e-16,-1.110223e-16,-1,652.1114,920.2434)">
            <path
               style="fill:#ffffff;fill-opacity:0.37991267;fill-rule:evenodd;stroke:none;stroke-opacity:1"
               d="M 30.068114,484.04813 C 30.442098,484.77248 30.801804,485.48231 31.214874,486.19537 C 45.072745,510.11746 75.805889,518.32478 99.80842,504.51335 C 123.81095,490.70192 132.04588,460.07177 118.188,436.14969 C 117.77493,435.43662 117.33798,434.77124 116.89555,434.08627 C 128.9888,457.64434 120.55858,486.81397 97.306133,500.19379 C 74.053682,513.57361 44.491995,506.26511 30.068114,484.04813 z "
               id="path2603" />
            <path
               id="path2605"
               d="M 31.289862,486.15717 C 30.847437,485.47219 30.410488,484.80681 29.997418,484.09375 C 16.139547,460.17166 24.374465,429.54151 48.376996,415.73008 C 72.379527,401.91865 103.11268,410.12596 116.97054,434.04806 C 117.38361,434.76112 117.74332,435.47095 118.1173,436.1953 C 103.69343,413.97832 74.13173,406.66983 50.879284,420.04965 C 27.626832,433.42947 19.196623,462.59909 31.289862,486.15717 z "
               style="fill:#000000;fill-opacity:0.31877729;fill-rule:evenodd;stroke:none;stroke-opacity:1" />
          </g>
          <g
             transform="matrix(-1,1.110223e-16,-1.110223e-16,-1,551.3262,920.2434)"
             id="g2607">
            <path
               id="path2609"
               d="M 30.068114,484.04813 C 30.442098,484.77248 30.801804,485.48231 31.214874,486.19537 C 45.072745,510.11746 75.805889,518.32478 99.80842,504.51335 C 123.81095,490.70192 132.04588,460.07177 118.188,436.14969 C 117.77493,435.43662 117.33798,434.77124 116.89555,434.08627 C 128.9888,457.64434 120.55858,486.81397 97.306133,500.19379 C 74.053682,513.57361 44.491995,506.26511 30.068114,484.04813 z "
               style="fill:#ffffff;fill-opacity:0.37991267;fill-rule:evenodd;stroke:none;stroke-opacity:1" />
            <path
               style="fill:#000000;fill-opacity:0.31877729;fill-rule:evenodd;stroke:none;stroke-opacity:1"
               d="M 31.289862,486.15717 C 30.847437,485.47219 30.410488,484.80681 29.997418,484.09375 C 16.139547,460.17166 24.374465,429.54151 48.376996,415.73008 C 72.379527,401.91865 103.11268,410.12596 116.97054,434.04806 C 117.38361,434.76112 117.74332,435.47095 118.1173,436.1953 C 103.69343,413.97832 74.13173,406.66983 50.879284,420.04965 C 27.626832,433.42947 19.196623,462.59909 31.289862,486.15717 z "
               id="path2611" />
          </g>
          <g
             id="g2613"
             transform="matrix(-1,1.110223e-16,-1.110223e-16,-1,450.541,920.2434)">
            <path
               style="fill:#ffffff;fill-opacity:0.37991267;fill-rule:evenodd;stroke:none;stroke-opacity:1"
               d="M 30.068114,484.04813 C 30.442098,484.77248 30.801804,485.48231 31.214874,486.19537 C 45.072745,510.11746 75.805889,518.32478 99.80842,504.51335 C 123.81095,490.70192 132.04588,460.07177 118.188,436.14969 C 117.77493,435.43662 117.33798,434.77124 116.89555,434.08627 C 128.9888,457.64434 120.55858,486.81397 97.306133,500.19379 C 74.053682,513.57361 44.491995,506.26511 30.068114,484.04813 z "
               id="path2615" />
            <path
               id="path2617"
               d="M 31.289862,486.15717 C 30.847437,485.47219 30.410488,484.80681 29.997418,484.09375 C 16.139547,460.17166 24.374465,429.54151 48.376996,415.73008 C 72.379527,401.91865 103.11268,410.12596 116.97054,434.04806 C 117.38361,434.76112 117.74332,435.47095 118.1173,436.1953 C 103.69343,413.97832 74.13173,406.66983 50.879284,420.04965 C 27.626832,433.42947 19.196623,462.59909 31.289862,486.15717 z "
               style="fill:#000000;fill-opacity:0.31877729;fill-rule:evenodd;stroke:none;stroke-opacity:1" />
          </g>
          <g
             transform="matrix(-1,1.110223e-16,-1.110223e-16,-1,349.7558,920.2434)"
             id="g2619">
            <path
               id="path2621"
               d="M 30.068114,484.04813 C 30.442098,484.77248 30.801804,485.48231 31.214874,486.19537 C 45.072745,510.11746 75.805889,518.32478 99.80842,504.51335 C 123.81095,490.70192 132.04588,460.07177 118.188,436.14969 C 117.77493,435.43662 117.33798,434.77124 116.89555,434.08627 C 128.9888,457.64434 120.55858,486.81397 97.306133,500.19379 C 74.053682,513.57361 44.491995,506.26511 30.068114,484.04813 z "
               style="fill:#ffffff;fill-opacity:0.37991267;fill-rule:evenodd;stroke:none;stroke-opacity:1" />
            <path
               style="fill:#000000;fill-opacity:0.31877729;fill-rule:evenodd;stroke:none;stroke-opacity:1"
               d="M 31.289862,486.15717 C 30.847437,485.47219 30.410488,484.80681 29.997418,484.09375 C 16.139547,460.17166 24.374465,429.54151 48.376996,415.73008 C 72.379527,401.91865 103.11268,410.12596 116.97054,434.04806 C 117.38361,434.76112 117.74332,435.47095 118.1173,436.1953 C 103.69343,413.97832 74.13173,406.66983 50.879284,420.04965 C 27.626832,433.42947 19.196623,462.59909 31.289862,486.15717 z "
               id="path2623" />
          </g>
          <g
             id="g2625"
             transform="matrix(-1,1.110223e-16,-1.110223e-16,-1,248.9706,920.2434)">
            <path
               style="fill:#ffffff;fill-opacity:0.37991267;fill-rule:evenodd;stroke:none;stroke-opacity:1"
               d="M 30.068114,484.04813 C 30.442098,484.77248 30.801804,485.48231 31.214874,486.19537 C 45.072745,510.11746 75.805889,518.32478 99.80842,504.51335 C 123.81095,490.70192 132.04588,460.07177 118.188,436.14969 C 117.77493,435.43662 117.33798,434.77124 116.89555,434.08627 C 128.9888,457.64434 120.55858,486.81397 97.306133,500.19379 C 74.053682,513.57361 44.491995,506.26511 30.068114,484.04813 z "
               id="path2627" />
            <path
               id="path2629"
               d="M 31.289862,486.15717 C 30.847437,485.47219 30.410488,484.80681 29.997418,484.09375 C 16.139547,460.17166 24.374465,429.54151 48.376996,415.73008 C 72.379527,401.91865 103.11268,410.12596 116.97054,434.04806 C 117.38361,434.76112 117.74332,435.47095 118.1173,436.1953 C 103.69343,413.97832 74.13173,406.66983 50.879284,420.04965 C 27.626832,433.42947 19.196623,462.59909 31.289862,486.15717 z "
               style="fill:#000000;fill-opacity:0.31877729;fill-rule:evenodd;stroke:none;stroke-opacity:1" />
          </g>
          <g
             transform="matrix(-1,1.110223e-16,-1.110223e-16,-1,148.1854,920.2434)"
             id="g2631">
            <path
               id="path2633"
               d="M 30.068114,484.04813 C 30.442098,484.77248 30.801804,485.48231 31.214874,486.19537 C 45.072745,510.11746 75.805889,518.32478 99.80842,504.51335 C 123.81095,490.70192 132.04588,460.07177 118.188,436.14969 C 117.77493,435.43662 117.33798,434.77124 116.89555,434.08627 C 128.9888,457.64434 120.55858,486.81397 97.306133,500.19379 C 74.053682,513.57361 44.491995,506.26511 30.068114,484.04813 z "
               style="fill:#ffffff;fill-opacity:0.37991267;fill-rule:evenodd;stroke:none;stroke-opacity:1" />
            <path
               style="fill:#000000;fill-opacity:0.31877729;fill-rule:evenodd;stroke:none;stroke-opacity:1"
               d="M 31.289862,486.15717 C 30.847437,485.47219 30.410488,484.80681 29.997418,484.09375 C 16.139547,460.17166 24.374465,429.54151 48.376996,415.73008 C 72.379527,401.91865 103.11268,410.12596 116.97054,434.04806 C 117.38361,434.76112 117.74332,435.47095 118.1173,436.1953 C 103.69343,413.97832 74.13173,406.66983 50.879284,420.04965 C 27.626832,433.42947 19.196623,462.59909 31.289862,486.15717 z "
               id="path2635" />
          </g>
          <g
             id="g2637"
             transform="matrix(-1,1.110223e-16,-1.110223e-16,-1,752.8966,920.2434)">
            <path
               style="fill:#ffffff;fill-opacity:0.37991267;fill-rule:evenodd;stroke:none;stroke-opacity:1"
               d="M 30.068114,484.04813 C 30.442098,484.77248 30.801804,485.48231 31.214874,486.19537 C 45.072745,510.11746 75.805889,518.32478 99.80842,504.51335 C 123.81095,490.70192 132.04588,460.07177 118.188,436.14969 C 117.77493,435.43662 117.33798,434.77124 116.89555,434.08627 C 128.9888,457.64434 120.55858,486.81397 97.306133,500.19379 C 74.053682,513.57361 44.491995,506.26511 30.068114,484.04813 z "
               id="path2639" />
            <path
               id="path2641"
               d="M 31.289862,486.15717 C 30.847437,485.47219 30.410488,484.80681 29.997418,484.09375 C 16.139547,460.17166 24.374465,429.54151 48.376996,415.73008 C 72.379527,401.91865 103.11268,410.12596 116.97054,434.04806 C 117.38361,434.76112 117.74332,435.47095 118.1173,436.1953 C 103.69343,413.97832 74.13173,406.66983 50.879284,420.04965 C 27.626832,433.42947 19.196623,462.59909 31.289862,486.15717 z "
               style="fill:#000000;fill-opacity:0.31877729;fill-rule:evenodd;stroke:none;stroke-opacity:1" />
          </g>
        </g>
      </g>
    </g>
  </g>
</svg>
